<svg id="Layer_1" data-name="Layer 1" xmlns="http://www.w3.org/2000/svg" xmlns:xlink="http://www.w3.org/1999/xlink" viewBox="0 0 842.92 771.89"><defs><style>.cls-1,.cls-2,.cls-3{opacity:0.24;}.cls-1{fill:url(#linear-gradient);}.cls-2{fill:url(#linear-gradient-2);}.cls-3{fill:url(#linear-gradient-3);}.cls-4,.cls-5{opacity:0.58;}.cls-4{fill:url(#linear-gradient-4);}.cls-5{fill:#ede5ca;}.cls-6{fill:#fff;stroke:#000;stroke-miterlimit:10;}</style><linearGradient id="linear-gradient" x1="424.71" x2="424.71" y2="721.83" gradientUnits="userSpaceOnUse"><stop offset="0" stop-color="#ede5ca"/><stop offset="0.15" stop-color="#ede4c9" stop-opacity="0.98"/><stop offset="0.29" stop-color="#ede1c4" stop-opacity="0.93"/><stop offset="0.44" stop-color="#edddbd" stop-opacity="0.85"/><stop offset="0.58" stop-color="#eed6b2" stop-opacity="0.74"/><stop offset="0.72" stop-color="#eecea5" stop-opacity="0.59"/><stop offset="0.86" stop-color="#eec495" stop-opacity="0.41"/><stop offset="1" stop-color="#efb982" stop-opacity="0.2"/></linearGradient><linearGradient id="linear-gradient-2" x1="360.92" y1="50.06" x2="360.92" y2="771.89" xlink:href="#linear-gradient"/><linearGradient id="linear-gradient-3" x1="482" y1="20.05" x2="482" y2="741.89" xlink:href="#linear-gradient"/><linearGradient id="linear-gradient-4" x1="363.15" y1="112.32" x2="488.15" y2="617.09" xlink:href="#linear-gradient"/></defs><title>bg_09</title><circle class="cls-1" cx="424.71" cy="360.92" r="360.92"/><circle class="cls-2" cx="360.92" cy="410.97" r="360.92"/><circle class="cls-3" cx="482" cy="380.97" r="360.92"/><circle class="cls-4" cx="424.71" cy="360.92" r="259.95"/><path class="cls-5" d="M178.93,445.39c-31.27-140.12,57-279.06,197.1-310.32,129.23-28.83,257.45,44,301.12,165.41C644.36,162.42,506.61,75.91,367.67,106.91,227.55,138.17,139.31,277.1,170.57,417.22a262.39,262.39,0,0,0,9.19,31.69C179.48,447.74,179.19,446.57,178.93,445.39Z"/><line class="cls-6" x1="78.84" y1="380.03" x2="78.84" y2="380.03"/></svg>