<svg id="Layer_1" data-name="Layer 1" xmlns="http://www.w3.org/2000/svg" viewBox="0 0 1919.94 381.47"><defs><style>.cls-1{fill:#151f7a;}.cls-2{fill:#003;}</style></defs><title>bg_foreground</title><polygon class="cls-1" points="710.81 92.87 661.6 252.81 763.1 252.81 710.81 92.87"/><polygon class="cls-1" points="281.13 3.39 246.21 116.86 318.22 116.86 281.13 3.39"/><polygon class="cls-1" points="675.56 132.06 640.65 245.53 712.65 245.53 675.56 132.06"/><path class="cls-1" d="M522.76,146.07c-4.25-2.92,3.14-3.42.82-5.68-3.41-3.33-4.22-7.77-5.94-12-2.69-6.62-1.46-14.51-6.69-20.18a2.63,2.63,0,0,1-.44-2c1.32-6.93-3.47-11.58-6.49-17.15-.62,6.06-9.36,9.5-4.93,17-6.2,7.42-3.69,18.54-10.86,25.55-1.76,1.54-.1,2,.86,2.66h0c1.17,4.57-10.82,6.07-2.84,12.22a2.54,2.54,0,0,1-.48.5c-7.06,4.24-4.85,13.38-10.23,19,3.06-.41,4.89,3.28,7.55,2,6.15-3,12.52-.4,18.71-1.34l.18,7h0c.91,2.31,2.77,1,4.27,1.12,3.57-1.94-.54-6.57,3-8.53,7.83-.06,15.73,2.43,24.24-.23C528.33,159.61,529.48,150.69,522.76,146.07Z"/><path class="cls-2" d="M0,381.47H1919.94V145c-90,44.24-165.76,64.07-220,73.9-32.81,5.95-57,8.12-225.71,31.78-41.71,5.86-57.71,8.18-66.31,9.37-157.45,21.87-372.08,78.25-569-5.66C750.55,216.78,691,164,567,153.93c-75.53-6.14-154.63,5.19-246-42A354.6,354.6,0,0,1,243,57c-13.2-17.52-24.65-24.44-33-27.42-2.06-.74-4.62-2.52-9.3-3.58C185.71,22.63,170,3.5,170,3.5L101.48,0S39.48,22,16,51.5a55,55,0,0,1-16,13V381.47Z"/></svg>