<svg xmlns="http://www.w3.org/2000/svg" viewBox="0 0 1280 720"><defs><style>.cls-1,.cls-14{fill:#3d3b3b;}.cls-2{fill:#ffe0bd;}.cls-3{fill:#ffcd94;}.cls-4{fill:#fff;}.cls-5{fill:#e6e6e6;}.cls-6{fill:#f4c669;}.cls-7{fill:#f4a453;}.cls-8{fill:gray;}.cls-9{fill:#666;}.cls-10{fill:#d89e68;}.cls-11{fill:#c9925b;}.cls-12{fill:#ea5e65;}.cls-13{fill:#ed4f50;}.cls-14{stroke:#fff;stroke-miterlimit:10;}.cls-15{fill:#d8d8d8;}</style></defs><title>slideten</title><g id="Slide_Ten" data-name="Slide Ten"><rect class="cls-1" width="1280" height="720"/><path class="cls-2" d="M605.28,276.61a9.35,9.35,0,0,0-.82-12.5L561.85,221.5h0a2,2,0,0,1,2.82-2.82h0l53.9,53.89a9.37,9.37,0,0,0,12.5.82,9.2,9.2,0,0,0,.68-13.59l-50.5-50.5,0,0a2,2,0,0,1,2.82-2.82l0,0,58.2,58.2a9.37,9.37,0,0,0,12.5.82,9.2,9.2,0,0,0,.68-13.59l-58.32-58.32a2.07,2.07,0,0,1-.22-2.75,2,2,0,0,1,3-.15l31.74,31.74L650.17,241a9.35,9.35,0,0,0,12.5.82,9.2,9.2,0,0,0,.68-13.59l-18.9-18.9L581,145.88a1,1,0,0,1,.46-1.63,4.84,4.84,0,0,1,4.56,1.29L600,159.47l1.58,1.58,17.59,17.58a9.67,9.67,0,0,0,12.91.85,9.51,9.51,0,0,0,.7-14l-18.08-18.07-1.44-1.45-20.71-20.71a25,25,0,0,0-17.69-7.32H531.59L486.45,163l20.14,28.39a48.68,48.68,0,0,0,4.74,5.51l4.79,4.8,75.57,75.56A9.2,9.2,0,0,0,605.28,276.61Z"/><path class="cls-3" d="M581.27,206.45a2,2,0,0,1,2.82,0l0,0,58.2,58.2a9.37,9.37,0,0,0,12.5.82,9.2,9.2,0,0,0,.68-13.59l-58.32-58.32a2.07,2.07,0,0,1-.22-2.75,2,2,0,0,1,3-.15l31.74,31.74L650.17,241a9.35,9.35,0,0,0,12.5.82,9.2,9.2,0,0,0,.68-13.59l-18.9-18.9L581,145.88a1,1,0,0,1,.46-1.63,4.84,4.84,0,0,1,4.56,1.29L600,159.47l1.58,1.58,17.59,17.58a9.67,9.67,0,0,0,12.91.85,9.51,9.51,0,0,0,.7-14l-18.08-18.07-1.44-1.45-20.71-20.71a25,25,0,0,0-17.69-7.32H531.59l-19.46,19.46"/><rect class="cls-4" x="471.68" y="132.96" width="83.52" height="8.78" transform="translate(973.63 -128.58) rotate(135)"/><rect class="cls-5" x="506.53" y="118.53" width="42.69" height="8.78" transform="translate(988.06 -163.43) rotate(135)"/><rect class="cls-6" x="441.17" y="72.57" width="88.31" height="71.82" transform="translate(905.21 -157.99) rotate(135)"/><rect class="cls-7" x="477.61" y="57.48" width="45.62" height="71.82" transform="translate(920.3 -194.43) rotate(135)"/><circle class="cls-8" cx="478.55" cy="144.41" r="6.78"/><circle class="cls-9" cx="462.94" cy="128.8" r="6.78"/><path class="cls-7" d="M473.76,139.61a6.78,6.78,0,0,1,9.59,9.59"/><path class="cls-7" d="M458.15,124a6.78,6.78,0,0,1,9.59,9.59"/><path class="cls-10" d="M646.63,276.61a9.35,9.35,0,0,1,.82-12.5l42.61-42.61h0a2,2,0,0,0-2.82-2.82h0l-53.9,53.89a9.37,9.37,0,0,1-12.5.82,9.2,9.2,0,0,1-.68-13.59l50.5-50.5,0,0a2,2,0,0,0-2.82-2.82l0,0-58.2,58.2a9.37,9.37,0,0,1-12.5.82,9.2,9.2,0,0,1-.68-13.59l58.32-58.32a2.07,2.07,0,0,0,.22-2.75,2,2,0,0,0-3-.15L620.3,222.42,601.74,241a9.35,9.35,0,0,1-12.5.82,9.2,9.2,0,0,1-.68-13.59l18.9-18.9,63.42-63.42a1,1,0,0,0-.46-1.63,4.84,4.84,0,0,0-4.56,1.29l-13.93,13.93-1.58,1.58-17.59,17.58a9.67,9.67,0,0,1-12.91.85,9.51,9.51,0,0,1-.7-14l18.08-18.07,1.44-1.45,20.71-20.71a25,25,0,0,1,17.69-7.32h43.25L765.46,163l-20.14,28.39a48.68,48.68,0,0,1-4.74,5.51l-4.79,4.8-75.57,75.56A9.2,9.2,0,0,1,646.63,276.61Z"/><path class="cls-11" d="M670.64,206.45a2,2,0,0,0-2.82,0l0,0-58.2,58.2a9.37,9.37,0,0,1-12.5.82,9.2,9.2,0,0,1-.68-13.59l58.32-58.32a2.07,2.07,0,0,0,.22-2.75,2,2,0,0,0-3-.15L620.3,222.42,601.74,241a9.35,9.35,0,0,1-12.5.82,9.2,9.2,0,0,1-.68-13.59l18.9-18.9,63.42-63.42a1,1,0,0,0-.46-1.63,4.84,4.84,0,0,0-4.56,1.29l-13.93,13.93-1.58,1.58-17.59,17.58a9.67,9.67,0,0,1-12.91.85,9.51,9.51,0,0,1-.7-14l18.08-18.07,1.44-1.45,20.71-20.71a25,25,0,0,1,17.69-7.32h43.25l19.46,19.46"/><rect class="cls-4" x="696.7" y="132.96" width="83.52" height="8.78" transform="translate(313.42 -481.94) rotate(45)"/><rect class="cls-5" x="702.68" y="118.53" width="42.69" height="8.78" transform="translate(298.98 -475.96) rotate(45)"/><rect class="cls-12" x="722.43" y="72.57" width="88.31" height="71.82" transform="translate(301.24 -510.28) rotate(45)"/><rect class="cls-13" x="728.68" y="57.48" width="45.62" height="71.82" transform="translate(286.14 -504.03) rotate(45)"/><circle class="cls-6" cx="773.36" cy="144.41" r="6.78"/><circle class="cls-6" cx="788.97" cy="128.8" r="6.78"/><path class="cls-7" d="M778.15,139.61a6.78,6.78,0,0,0-9.59,9.59"/><path class="cls-7" d="M793.76,124a6.78,6.78,0,1,0-9.59,9.59"/><path class="cls-14" d="M361.53,359a27.72,27.72,0,0,1-2,10.5,24.55,24.55,0,0,1-5.53,8.31,25,25,0,0,1-8.59,5.47,30.3,30.3,0,0,1-11.14,2H313.94V332.79h20.37a30.1,30.1,0,0,1,11.14,2,25.45,25.45,0,0,1,8.59,5.48,24.27,24.27,0,0,1,5.53,8.29A27.58,27.58,0,0,1,361.53,359Zm-12.46,0a22.93,22.93,0,0,0-1-7,14.92,14.92,0,0,0-2.89-5.31,12.66,12.66,0,0,0-4.63-3.35,15.7,15.7,0,0,0-6.23-1.17h-8.13v33.74h8.13a15.7,15.7,0,0,0,6.23-1.17,12.66,12.66,0,0,0,4.63-3.35,14.92,14.92,0,0,0,2.89-5.31A23.06,23.06,0,0,0,349.07,359Z"/><path class="cls-14" d="M383.34,347.34a19.2,19.2,0,0,1,6.79,1.15,14.75,14.75,0,0,1,5.29,3.35,15.25,15.25,0,0,1,3.46,5.38,19.91,19.91,0,0,1,1.24,7.22,16.05,16.05,0,0,1-.11,2.05,3.07,3.07,0,0,1-.4,1.26,1.52,1.52,0,0,1-.77.65,3.61,3.61,0,0,1-1.24.18H376.07q.54,4.68,2.84,6.78a8.45,8.45,0,0,0,5.94,2.11,10.66,10.66,0,0,0,3.35-.47,16.81,16.81,0,0,0,2.5-1l2-1a4.19,4.19,0,0,1,1.93-.46,2.29,2.29,0,0,1,2,1l3.24,4a16.66,16.66,0,0,1-3.72,3.23,19.94,19.94,0,0,1-4.11,1.94,22.07,22.07,0,0,1-4.21,1,31.52,31.52,0,0,1-4,.27,21.07,21.07,0,0,1-7.37-1.28,16.91,16.91,0,0,1-6-3.79,18.05,18.05,0,0,1-4.07-6.27,23.5,23.5,0,0,1-1.49-8.71,19.73,19.73,0,0,1,1.28-7.09,17.4,17.4,0,0,1,3.67-5.87,17.62,17.62,0,0,1,5.8-4A19.16,19.16,0,0,1,383.34,347.34Zm.22,7.7a6.74,6.74,0,0,0-5,1.82,9.44,9.44,0,0,0-2.37,5.24h13.93a9.74,9.74,0,0,0-.34-2.59,6.26,6.26,0,0,0-1.12-2.25,5.65,5.65,0,0,0-2-1.61A7.07,7.07,0,0,0,383.56,355Z"/><path class="cls-14" d="M429.35,356.09a2.88,2.88,0,0,1-.92,1,2.42,2.42,0,0,1-1.24.29,3.89,3.89,0,0,1-1.58-.35l-1.71-.73a19,19,0,0,0-2.07-.74,9.22,9.22,0,0,0-2.63-.34,5.57,5.57,0,0,0-3.26.81,2.6,2.6,0,0,0-1.13,2.25,2.24,2.24,0,0,0,.73,1.72,6.84,6.84,0,0,0,2,1.21,25.78,25.78,0,0,0,2.77,1c1,.31,2.09.66,3.17,1a30.3,30.3,0,0,1,3.16,1.35,12.13,12.13,0,0,1,2.78,1.91,8.64,8.64,0,0,1,2,2.76,9.33,9.33,0,0,1,.74,3.88,12.85,12.85,0,0,1-1,5.12,10.88,10.88,0,0,1-3,4,14.22,14.22,0,0,1-4.93,2.63,22.39,22.39,0,0,1-6.75.93,20.66,20.66,0,0,1-3.82-.36,26.3,26.3,0,0,1-3.69-1,20.1,20.1,0,0,1-3.29-1.46,13.91,13.91,0,0,1-2.59-1.82l2.59-4.1a3.56,3.56,0,0,1,1.12-1.13,3,3,0,0,1,1.69-.42,3.56,3.56,0,0,1,1.74.43l1.68.94a13.84,13.84,0,0,0,2.1.94,9.4,9.4,0,0,0,3.05.43,7.7,7.7,0,0,0,2.19-.27,3.9,3.9,0,0,0,1.44-.74,2.85,2.85,0,0,0,.79-1,2.93,2.93,0,0,0,.26-1.19,2.44,2.44,0,0,0-.76-1.84,6.52,6.52,0,0,0-2-1.24,24.31,24.31,0,0,0-2.79-1c-1-.3-2.11-.64-3.19-1a24.65,24.65,0,0,1-3.18-1.38,10.74,10.74,0,0,1-2.79-2.06,9.31,9.31,0,0,1-2-3,11.11,11.11,0,0,1-.76-4.35,11.38,11.38,0,0,1,.92-4.52,10.48,10.48,0,0,1,2.75-3.76,13.65,13.65,0,0,1,4.61-2.58,20.11,20.11,0,0,1,6.48-1,20.83,20.83,0,0,1,3.91.36,19.16,19.16,0,0,1,3.54,1,16.52,16.52,0,0,1,3,1.53,14.62,14.62,0,0,1,2.41,1.92Z"/><path class="cls-14" d="M451,337.69a5.88,5.88,0,0,1-.54,2.5,6.53,6.53,0,0,1-1.47,2.05,7.3,7.3,0,0,1-2.18,1.41,6.73,6.73,0,0,1-2.65.52,6.3,6.3,0,0,1-2.56-.52,7.17,7.17,0,0,1-2.1-1.41,6.45,6.45,0,0,1-1.44-2.05,6,6,0,0,1-.52-2.5,6.3,6.3,0,0,1,.52-2.56,6.85,6.85,0,0,1,1.44-2.09,7,7,0,0,1,2.1-1.4,6.64,6.64,0,0,1,2.56-.5A6.92,6.92,0,0,1,449,333a6.94,6.94,0,0,1,1.47,2.09A6.16,6.16,0,0,1,451,337.69Zm-1.29,10.22v37.34H438.56V347.91Z"/><path class="cls-14" d="M471.9,347.27a20.74,20.74,0,0,1,4.48.46,18.18,18.18,0,0,1,3.91,1.34h11.27v4.06a2,2,0,0,1-.53,1.48,3.52,3.52,0,0,1-1.78.83l-2.73.61a11.42,11.42,0,0,1,.5,3.35,10.7,10.7,0,0,1-1.17,5,11.57,11.57,0,0,1-3.2,3.8,15.19,15.19,0,0,1-4.81,2.41,20.4,20.4,0,0,1-5.94.84,24.58,24.58,0,0,1-3.31-.21,2,2,0,0,0-1.23,1.67,1.41,1.41,0,0,0,1,1.36,8.88,8.88,0,0,0,2.61.58,36.94,36.94,0,0,0,3.71.17c1.39,0,2.81.06,4.25.2a33.27,33.27,0,0,1,4.25.66,11.5,11.5,0,0,1,3.71,1.52,7.9,7.9,0,0,1,2.61,2.8,9,9,0,0,1,1,4.46,10.85,10.85,0,0,1-1.23,4.95,12.88,12.88,0,0,1-3.6,4.3,18.84,18.84,0,0,1-5.83,3,25.22,25.22,0,0,1-7.92,1.14,30.54,30.54,0,0,1-7.58-.83,18.27,18.27,0,0,1-5.29-2.18,9.16,9.16,0,0,1-3.11-3.12,7.24,7.24,0,0,1-1-3.68,6.1,6.1,0,0,1,1.51-4.19,10.11,10.11,0,0,1,4.14-2.69,5.94,5.94,0,0,1-2.77-5.39,5.56,5.56,0,0,1,.29-1.74,6.22,6.22,0,0,1,.9-1.78,8.78,8.78,0,0,1,1.54-1.66,10.57,10.57,0,0,1,2.24-1.4,12.11,12.11,0,0,1-4.59-4.1,10.59,10.59,0,0,1-1.68-5.94,10.7,10.7,0,0,1,1.19-5.06,11.48,11.48,0,0,1,3.26-3.82,15.46,15.46,0,0,1,4.88-2.41A21.12,21.12,0,0,1,471.9,347.27Zm8.28,39.26a2,2,0,0,0-.56-1.47,3.87,3.87,0,0,0-1.51-.88,10.73,10.73,0,0,0-2.23-.48,23.69,23.69,0,0,0-2.76-.15h-3.06a16.43,16.43,0,0,1-3.13-.3,7.52,7.52,0,0,0-1.71,1.6,3.28,3.28,0,0,0-.66,2,3,3,0,0,0,.34,1.44,2.85,2.85,0,0,0,1.2,1.12,8.09,8.09,0,0,0,2.33.74,20.8,20.8,0,0,0,3.69.27,21.57,21.57,0,0,0,4-.3,8.15,8.15,0,0,0,2.46-.8,3.07,3.07,0,0,0,1.28-1.24A3.38,3.38,0,0,0,480.18,386.53Zm-8.28-21.91a5.1,5.1,0,0,0,4-1.39,5.15,5.15,0,0,0,1.25-3.58,4.92,4.92,0,0,0-1.25-3.56,6.83,6.83,0,0,0-8,0,4.92,4.92,0,0,0-1.25,3.56,6.23,6.23,0,0,0,.31,2,4.14,4.14,0,0,0,.95,1.57,4.56,4.56,0,0,0,1.64,1A6.67,6.67,0,0,0,471.9,364.62Z"/><path class="cls-14" d="M496.38,385.25V347.91h6.91a3.11,3.11,0,0,1,1.75.47,2.47,2.47,0,0,1,1,1.41l.65,2.16a26.11,26.11,0,0,1,2.23-1.88,13.24,13.24,0,0,1,2.46-1.45,14.66,14.66,0,0,1,2.85-.94,15.14,15.14,0,0,1,3.33-.34A13.07,13.07,0,0,1,523,348.4a11.25,11.25,0,0,1,4,3,12.71,12.71,0,0,1,2.45,4.5,18.72,18.72,0,0,1,.83,5.67v23.73H519.06V361.52a6.52,6.52,0,0,0-1.26-4.26,4.53,4.53,0,0,0-3.71-1.53,7.72,7.72,0,0,0-3.45.79,13.35,13.35,0,0,0-3.1,2.12v26.61Z"/><path class="cls-14" d="M553.69,385.25V355.58l-2.45-.5a5,5,0,0,1-2-.9,2.15,2.15,0,0,1-.78-1.8V348h5.26v-2.13a15.47,15.47,0,0,1,1-5.79,12.09,12.09,0,0,1,2.95-4.43,13.28,13.28,0,0,1,4.7-2.85,18.35,18.35,0,0,1,6.3-1,17,17,0,0,1,5,.68l-.21,5.44a1.85,1.85,0,0,1-.31.95,2.13,2.13,0,0,1-.66.61,2.89,2.89,0,0,1-.89.34,3.91,3.91,0,0,1-.95.11,11,11,0,0,0-2.63.29,4.07,4.07,0,0,0-1.92,1,4.53,4.53,0,0,0-1.17,1.94,9.69,9.69,0,0,0-.4,3V348h8.78v7.63h-8.42v29.63Z"/><path class="cls-14" d="M594.73,347.34a21.53,21.53,0,0,1,7.74,1.33,16.73,16.73,0,0,1,9.88,9.85,21.6,21.6,0,0,1,1.39,8,22,22,0,0,1-1.39,8.05,17.3,17.3,0,0,1-3.89,6.08,16.92,16.92,0,0,1-6,3.85,23,23,0,0,1-15.53,0,16.88,16.88,0,0,1-10-9.93,22.25,22.25,0,0,1-1.38-8.05,21.81,21.81,0,0,1,1.38-8,17,17,0,0,1,3.93-6,17.28,17.28,0,0,1,6.05-3.82A21.73,21.73,0,0,1,594.73,347.34Zm0,30.2a6.32,6.32,0,0,0,5.67-2.72q1.82-2.71,1.82-8.26t-1.82-8.24a6.35,6.35,0,0,0-5.67-2.7,6.52,6.52,0,0,0-5.8,2.7q-1.83,2.7-1.83,8.24t1.83,8.26C590.16,376.64,592.09,377.54,594.73,377.54Z"/><path class="cls-14" d="M619.86,385.25V347.91h6.62a5.52,5.52,0,0,1,1.39.15,2.25,2.25,0,0,1,.93.45,1.8,1.8,0,0,1,.58.81,6.76,6.76,0,0,1,.34,1.22l.61,3.49a18.34,18.34,0,0,1,4.61-5,9.42,9.42,0,0,1,5.58-1.84,6.43,6.43,0,0,1,4.11,1.23l-1.44,8.2a1.63,1.63,0,0,1-.58,1.07,2,2,0,0,1-1.15.3,7.43,7.43,0,0,1-1.44-.16,11,11,0,0,0-2.09-.16q-4.39,0-6.91,4.68v22.9Z"/><path class="cls-6" d="M697.26,332.79v9.36H675.73v12.24h16.49v9H675.73v12.5h21.53v9.36H663.49V332.79Z"/><path class="cls-6" d="M724.83,385.25H714.68l-14.47-37.34h9.29a3.43,3.43,0,0,1,2,.56,2.78,2.78,0,0,1,1.1,1.39l5.19,16.74,1.17,4c.37,1.3.69,2.6.95,3.89.26-1.29.59-2.59,1-3.89s.79-2.62,1.23-4l5.4-16.74a2.79,2.79,0,0,1,1.08-1.39,3.16,3.16,0,0,1,1.87-.56h8.85Z"/><path class="cls-6" d="M758.53,347.34a19.14,19.14,0,0,1,6.78,1.15,14.7,14.7,0,0,1,5.3,3.35,15.37,15.37,0,0,1,3.45,5.38,19.7,19.7,0,0,1,1.24,7.22,16.33,16.33,0,0,1-.1,2.05,3.4,3.4,0,0,1-.4,1.26,1.52,1.52,0,0,1-.77.65,3.67,3.67,0,0,1-1.25.18H751.26c.36,3.12,1.3,5.38,2.84,6.78a8.45,8.45,0,0,0,5.94,2.11,10.7,10.7,0,0,0,3.35-.47,17.27,17.27,0,0,0,2.5-1c.73-.39,1.4-.73,2-1a4.18,4.18,0,0,1,1.92-.46,2.31,2.31,0,0,1,2,1l3.24,4a16.7,16.7,0,0,1-3.73,3.23,19.86,19.86,0,0,1-4.1,1.94,22.24,22.24,0,0,1-4.21,1,31.8,31.8,0,0,1-4,.27,21,21,0,0,1-7.36-1.28,16.83,16.83,0,0,1-6-3.79,17.91,17.91,0,0,1-4.07-6.27,23.3,23.3,0,0,1-1.49-8.71,19.72,19.72,0,0,1,1.27-7.09,17.31,17.31,0,0,1,9.47-9.87A19.21,19.21,0,0,1,758.53,347.34Zm.21,7.7a6.73,6.73,0,0,0-5,1.82,9.52,9.52,0,0,0-2.38,5.24H765.3a9.75,9.75,0,0,0-.35-2.59,6.24,6.24,0,0,0-1.11-2.25,5.78,5.78,0,0,0-2-1.61A7.07,7.07,0,0,0,758.74,355Z"/><path class="cls-6" d="M781.71,385.25V347.91h6.63a5.38,5.38,0,0,1,1.38.15,2.29,2.29,0,0,1,.94.45,1.86,1.86,0,0,1,.57.81,7.61,7.61,0,0,1,.35,1.22l.61,3.49a18.19,18.19,0,0,1,4.61-5,9.38,9.38,0,0,1,5.58-1.84,6.4,6.4,0,0,1,4.1,1.23l-1.44,8.2a1.63,1.63,0,0,1-.58,1.07,2,2,0,0,1-1.15.3,7.43,7.43,0,0,1-1.44-.16,11,11,0,0,0-2.09-.16q-4.39,0-6.91,4.68v22.9Z"/><path class="cls-6" d="M826.71,394.93a4.07,4.07,0,0,1-1.22,1.64,4,4,0,0,1-2.31.52h-8.35L822,382l-14.9-34.06H817a3.19,3.19,0,0,1,2,.58,3,3,0,0,1,1,1.37L826.13,366a35.31,35.31,0,0,1,1.41,4.46c.24-.76.5-1.52.79-2.26s.56-1.5.83-2.27l5.54-16a2.71,2.71,0,0,1,1.14-1.39,3.24,3.24,0,0,1,1.81-.56h9Z"/><path class="cls-6" d="M866.46,347.34a21.53,21.53,0,0,1,7.74,1.33,16.73,16.73,0,0,1,9.88,9.85,21.81,21.81,0,0,1,1.38,8,22.25,22.25,0,0,1-1.38,8.05,17.44,17.44,0,0,1-3.89,6.08,17.1,17.1,0,0,1-6,3.85,21.32,21.32,0,0,1-7.74,1.35,21.57,21.57,0,0,1-7.8-1.35,17.44,17.44,0,0,1-6-3.85,17.09,17.09,0,0,1-3.92-6.08,22,22,0,0,1-1.39-8.05,21.6,21.6,0,0,1,1.39-8,16.8,16.8,0,0,1,3.92-6,17.37,17.37,0,0,1,6-3.82A21.79,21.79,0,0,1,866.46,347.34Zm0,30.2a6.34,6.34,0,0,0,5.67-2.72q1.82-2.71,1.81-8.26t-1.81-8.24a6.37,6.37,0,0,0-5.67-2.7q-4,0-5.8,2.7c-1.22,1.8-1.84,4.55-1.84,8.24s.62,6.45,1.84,8.26S863.81,377.54,866.46,377.54Z"/><path class="cls-6" d="M891.58,385.25V347.91h6.91a3.11,3.11,0,0,1,1.75.47,2.47,2.47,0,0,1,1,1.41l.65,2.16a26.11,26.11,0,0,1,2.23-1.88,13,13,0,0,1,2.47-1.45,14.34,14.34,0,0,1,2.84-.94,15.14,15.14,0,0,1,3.33-.34,13,13,0,0,1,5.42,1.06,11.29,11.29,0,0,1,4,3,12.7,12.7,0,0,1,2.44,4.5,18.42,18.42,0,0,1,.83,5.67v23.73H914.26V361.52a6.52,6.52,0,0,0-1.26-4.26,4.52,4.52,0,0,0-3.71-1.53,7.72,7.72,0,0,0-3.45.79,13.57,13.57,0,0,0-3.1,2.12v26.61Z"/><path class="cls-6" d="M949.33,347.34a19.14,19.14,0,0,1,6.78,1.15,14.66,14.66,0,0,1,5.29,3.35,15.25,15.25,0,0,1,3.46,5.38,19.7,19.7,0,0,1,1.24,7.22,14.4,14.4,0,0,1-.11,2.05,3.23,3.23,0,0,1-.39,1.26,1.54,1.54,0,0,1-.78.65,3.57,3.57,0,0,1-1.24.18H942.05q.54,4.68,2.85,6.78a8.42,8.42,0,0,0,5.94,2.11,10.74,10.74,0,0,0,3.35-.47,17.76,17.76,0,0,0,2.5-1l2-1a4.25,4.25,0,0,1,1.93-.46,2.31,2.31,0,0,1,2,1l3.24,4a16.92,16.92,0,0,1-3.73,3.23,19.86,19.86,0,0,1-4.1,1.94,22.16,22.16,0,0,1-4.22,1,31.52,31.52,0,0,1-4,.27,21,21,0,0,1-7.36-1.28,16.83,16.83,0,0,1-6-3.79,17.78,17.78,0,0,1-4.07-6.27,23.3,23.3,0,0,1-1.5-8.71,19.73,19.73,0,0,1,1.28-7.09,17.23,17.23,0,0,1,9.47-9.87A19.21,19.21,0,0,1,949.33,347.34Zm.21,7.7a6.72,6.72,0,0,0-5,1.82,9.45,9.45,0,0,0-2.38,5.24h13.93a9.74,9.74,0,0,0-.34-2.59,6.41,6.41,0,0,0-1.11-2.25,5.78,5.78,0,0,0-2-1.61A7.07,7.07,0,0,0,949.54,355Z"/></g><g id="Text"><path class="cls-15" d="M255.43,471.65h-9.58v6.08h9.29v3.46h-9.29v7.55h9.58v3.46H242.18v-24h13.25Z"/><path class="cls-15" d="M259.5,477.05H263v1.4a5.22,5.22,0,0,1,4.1-1.8,5.05,5.05,0,0,1,4.46,2.05c.58.83.94,1.87.94,4.21v9.29H269v-8.42c0-3.85-1.44-4-2.77-4-1.58,0-3.2.21-3.2,5.11v7.27H259.5Z"/><path class="cls-15" d="M288.73,481.69a6,6,0,0,0-4.28-1.87,4.53,4.53,0,0,0-3.35,1.33,4.84,4.84,0,0,0-1.3,3.49,5.07,5.07,0,0,0,1.37,3.64,4.6,4.6,0,0,0,3.2,1.22,6,6,0,0,0,4.36-1.94v3.92a8.32,8.32,0,0,1-4.61,1.19,7.39,7.39,0,0,1-5.76-2.23,7.89,7.89,0,0,1-2.16-5.69,8.1,8.1,0,0,1,2.31-5.87,9,9,0,0,1,10.22-1.15Z"/><path class="cls-15" d="M307.52,484.64a8.1,8.1,0,1,1-8.1-8A7.87,7.87,0,0,1,307.52,484.64Zm-3.6,0c0-3.46-2.27-4.86-4.5-4.86s-4.5,1.4-4.5,4.86c0,2.91,1.73,4.82,4.5,4.82S303.92,487.59,303.92,484.68Z"/><path class="cls-15" d="M314.72,477.05v8.67a4.4,4.4,0,0,0,.65,2.74,3.07,3.07,0,0,0,4.61,0,4.39,4.39,0,0,0,.64-2.74v-8.67h3.53v8.78c0,1.94-.21,3.56-1.62,5a7,7,0,0,1-4.93,1.87,6.68,6.68,0,0,1-4.79-1.87c-1.4-1.41-1.62-3-1.62-5v-8.78Z"/><path class="cls-15" d="M328.62,477.05h3.53v1.36a6.26,6.26,0,0,1,1.47-1.26,4.12,4.12,0,0,1,2.16-.5,5.19,5.19,0,0,1,2.77.72l-1.44,3.2a3.22,3.22,0,0,0-1.8-.54,2.74,2.74,0,0,0-2.19.83,4.9,4.9,0,0,0-1,3.49v7.85h-3.53Z"/><path class="cls-15" d="M350.9,477.05h3.53V492.2H350.9v-1.58a5.83,5.83,0,0,1-4.54,2.05c-4.67,0-7.34-3.89-7.34-8.06,0-4.94,3.38-8,7.38-8a5.53,5.53,0,0,1,4.5,2.16Zm-8.28,7.63c0,2.62,1.66,4.82,4.21,4.82,2.23,0,4.29-1.62,4.29-4.79s-2.06-4.89-4.29-4.89C344.28,479.82,342.62,482,342.62,484.68Z"/><path class="cls-15" d="M370,477.05h3.53V491c0,3.56-.4,6.12-2.49,7.88a7.69,7.69,0,0,1-5,1.62,6.68,6.68,0,0,1-5-1.87,8.49,8.49,0,0,1-2.23-4.72h3.42a5,5,0,0,0,1.11,2.38,3.61,3.61,0,0,0,2.74,1,3.76,3.76,0,0,0,2.77-1,5,5,0,0,0,1.15-3.81v-2a5.5,5.5,0,0,1-4.61,2.16,6.43,6.43,0,0,1-5-2.05,8.57,8.57,0,0,1-2.27-6,8.08,8.08,0,0,1,2.23-5.87,6.88,6.88,0,0,1,5.15-2.09,5.7,5.7,0,0,1,4.5,2.05Zm-6.73,3.78a5.56,5.56,0,0,0,0,7.66,4.11,4.11,0,0,0,2.7,1,3.82,3.82,0,0,0,2.95-1.22,5.59,5.59,0,0,0-.1-7.38,3.74,3.74,0,0,0-2.85-1.08A3.63,3.63,0,0,0,363.25,480.83Z"/><path class="cls-15" d="M391.54,488.74a7.9,7.9,0,0,1-2.55,2.78,8.39,8.39,0,0,1-4.47,1.15,6.73,6.73,0,0,1-5.11-1.95,8.1,8.1,0,0,1-2.23-5.79,8.9,8.9,0,0,1,2.41-6.23,6.91,6.91,0,0,1,5.08-2.05,6.51,6.51,0,0,1,4.86,2c1.94,2,2.12,4.82,2.12,6.41v.43H380.78a5,5,0,0,0,1.3,3.06,3.58,3.58,0,0,0,2.7,1,3.66,3.66,0,0,0,2.41-.76,5.39,5.39,0,0,0,1.4-1.65Zm-3.49-6.15a3.62,3.62,0,0,0-1.08-2,3.66,3.66,0,0,0-4.86.11,3.94,3.94,0,0,0-1.08,1.94Z"/><path class="cls-15" d="M414.8,477.05h3.53V492.2H414.8v-1.58a5.83,5.83,0,0,1-4.54,2.05c-4.68,0-7.34-3.89-7.34-8.06,0-4.94,3.38-8,7.38-8a5.53,5.53,0,0,1,4.5,2.16Zm-8.28,7.63c0,2.62,1.66,4.82,4.21,4.82,2.23,0,4.29-1.62,4.29-4.79s-2.06-4.89-4.29-4.89C408.18,479.82,406.52,482,406.52,484.68Z"/><path class="cls-15" d="M434.71,500.44h-3.53V477.05h3.53v1.65a5.69,5.69,0,0,1,4.5-2.05c4,0,7.38,3.06,7.38,7.88,0,5.11-3.75,8.14-7.35,8.14a6,6,0,0,1-4.53-2.23Zm-.22-15.73c0,3.17,2.05,4.79,4.28,4.79,2.56,0,4.22-2.2,4.22-4.82s-1.66-4.86-4.22-4.86C436.54,479.82,434.49,481.4,434.49,484.71Z"/><path class="cls-15" d="M463.83,488.74a7.93,7.93,0,0,1-2.56,2.78,8.33,8.33,0,0,1-4.46,1.15,6.73,6.73,0,0,1-5.11-1.95,8.1,8.1,0,0,1-2.23-5.79,8.9,8.9,0,0,1,2.41-6.23,6.91,6.91,0,0,1,5.08-2.05,6.49,6.49,0,0,1,4.85,2c1.95,2,2.13,4.82,2.13,6.41v.43H453.07a5,5,0,0,0,1.29,3.06,3.6,3.6,0,0,0,2.7,1,3.64,3.64,0,0,0,2.41-.76,5.43,5.43,0,0,0,1.41-1.65Zm-3.49-6.15a3.68,3.68,0,0,0-1.08-2,3.66,3.66,0,0,0-4.86.11,3.94,3.94,0,0,0-1.08,1.94Z"/><path class="cls-15" d="M483,484.64a8.1,8.1,0,1,1-8.1-8A7.87,7.87,0,0,1,483,484.64Zm-3.6,0c0-3.46-2.27-4.86-4.5-4.86s-4.5,1.4-4.5,4.86c0,2.91,1.73,4.82,4.5,4.82S479.42,487.59,479.42,484.68Z"/><path class="cls-15" d="M490.22,500.44h-3.53V477.05h3.53v1.65a5.7,5.7,0,0,1,4.5-2.05c4,0,7.38,3.06,7.38,7.88,0,5.11-3.75,8.14-7.35,8.14a6,6,0,0,1-4.53-2.23ZM490,484.71c0,3.17,2.06,4.79,4.29,4.79,2.55,0,4.21-2.2,4.21-4.82s-1.66-4.86-4.21-4.86C492.06,479.82,490,481.4,490,484.71Z"/><path class="cls-15" d="M509.3,466V492.2h-3.53V466Z"/><path class="cls-15" d="M527.33,488.74a7.9,7.9,0,0,1-2.55,2.78,8.39,8.39,0,0,1-4.47,1.15,6.73,6.73,0,0,1-5.11-1.95,8.1,8.1,0,0,1-2.23-5.79,8.9,8.9,0,0,1,2.41-6.23,6.91,6.91,0,0,1,5.08-2.05,6.51,6.51,0,0,1,4.86,2c1.94,2,2.12,4.82,2.12,6.41v.43H516.57a5,5,0,0,0,1.3,3.06,3.58,3.58,0,0,0,2.7,1,3.66,3.66,0,0,0,2.41-.76,5.39,5.39,0,0,0,1.4-1.65Zm-3.49-6.15a3.62,3.62,0,0,0-1.08-2,3.66,3.66,0,0,0-4.86.11,3.94,3.94,0,0,0-1.08,1.94Z"/><path class="cls-15" d="M532.55,482.7h8.64v3.67h-8.64Z"/><path class="cls-15" d="M548.83,480.29V492.2H545.3V480.29h-1.23v-3.24h1.23v-5a6.76,6.76,0,0,1,.93-4.14c.8-1.12,2.34-2.34,5.26-2.34,3.49,0,4.72,1.51,5.25,2.34a7,7,0,0,1,.94,4.14v1h-3.53v-.65a4.4,4.4,0,0,0-.43-2.34,2.39,2.39,0,0,0-2.23-1.15,2.36,2.36,0,0,0-2.23,1.15,4.41,4.41,0,0,0-.43,2.34v4.65h3.81v3.24Zm8.85-3.24V492.2h-3.53V477.05Z"/><path class="cls-15" d="M562.15,477.05h3.52v1.36a6.52,6.52,0,0,1,1.48-1.26,4.12,4.12,0,0,1,2.16-.5,5.19,5.19,0,0,1,2.77.72l-1.44,3.2a3.22,3.22,0,0,0-1.8-.54,2.73,2.73,0,0,0-2.19.83,4.87,4.87,0,0,0-1,3.49v7.85h-3.52Z"/><path class="cls-15" d="M580,481a2.54,2.54,0,0,0-2.16-1.29,1.53,1.53,0,0,0-1.08.39,1.14,1.14,0,0,0-.32.79,1,1,0,0,0,.5.87c.22.14.43.21,1.19.61l1.8.9a7.31,7.31,0,0,1,2.12,1.4,3.75,3.75,0,0,1,1.12,2.81,5.07,5.07,0,0,1-1.33,3.46,5.44,5.44,0,0,1-4.25,1.69,5.28,5.28,0,0,1-3.28-1,6,6,0,0,1-1.94-2.78l2.88-1.36a4,4,0,0,0,.83,1.44,2.18,2.18,0,0,0,1.55.57,2.11,2.11,0,0,0,1.43-.5,1.8,1.8,0,0,0,.51-1.19,1.65,1.65,0,0,0-.47-1.15,4.59,4.59,0,0,0-1.51-.94l-1.3-.61a7.24,7.24,0,0,1-2.08-1.3,3.26,3.26,0,0,1-1.08-2.55,4.71,4.71,0,0,1,1.26-3.24,4.86,4.86,0,0,1,3.7-1.44,4.78,4.78,0,0,1,2.81.79,5.3,5.3,0,0,1,1.73,1.87Z"/><path class="cls-15" d="M590,480.29V492.2h-3.52V480.29H585v-3.24h1.48V471.5H590v5.55h2.7v3.24Z"/><path class="cls-15" d="M596.31,487.7l3.17,1.22-4.47,8.9-2.37-1Z"/><path class="cls-15" d="M625.47,488.74a8,8,0,0,1-2.56,2.78,8.33,8.33,0,0,1-4.46,1.15,6.72,6.72,0,0,1-5.11-1.95,8.11,8.11,0,0,1-2.24-5.79,8.87,8.87,0,0,1,2.42-6.23,6.89,6.89,0,0,1,5.07-2.05,6.51,6.51,0,0,1,4.86,2c1.94,2,2.12,4.82,2.12,6.41v.43H614.7a5,5,0,0,0,1.3,3.06,3.59,3.59,0,0,0,2.7,1,3.66,3.66,0,0,0,2.41-.76,5.39,5.39,0,0,0,1.4-1.65Zm-3.5-6.15a3.62,3.62,0,0,0-1.08-2,3.64,3.64,0,0,0-4.85.11,3.86,3.86,0,0,0-1.08,1.94Z"/><path class="cls-15" d="M640.33,477.05h3.53V492.2h-3.53v-1.58a5.8,5.8,0,0,1-4.53,2.05c-4.68,0-7.34-3.89-7.34-8.06,0-4.94,3.38-8,7.37-8a5.53,5.53,0,0,1,4.5,2.16Zm-8.27,7.63c0,2.62,1.65,4.82,4.21,4.82,2.23,0,4.28-1.62,4.28-4.79s-2-4.89-4.28-4.89C633.71,479.82,632.06,482,632.06,484.68Z"/><path class="cls-15" d="M655,481a2.54,2.54,0,0,0-2.16-1.29,1.53,1.53,0,0,0-1.08.39,1.14,1.14,0,0,0-.32.79,1,1,0,0,0,.5.87c.22.14.43.21,1.19.61l1.8.9a7.31,7.31,0,0,1,2.12,1.4,3.75,3.75,0,0,1,1.12,2.81,5.07,5.07,0,0,1-1.33,3.46,5.44,5.44,0,0,1-4.25,1.69,5.28,5.28,0,0,1-3.28-1,6,6,0,0,1-1.94-2.78l2.88-1.36A4,4,0,0,0,651,489a2.17,2.17,0,0,0,1.54.57,2.13,2.13,0,0,0,1.44-.5,1.8,1.8,0,0,0,.51-1.19,1.65,1.65,0,0,0-.47-1.15,4.69,4.69,0,0,0-1.51-.94l-1.3-.61a7.24,7.24,0,0,1-2.08-1.3,3.26,3.26,0,0,1-1.08-2.55,4.71,4.71,0,0,1,1.26-3.24,4.86,4.86,0,0,1,3.7-1.44,4.78,4.78,0,0,1,2.81.79,5.3,5.3,0,0,1,1.73,1.87Z"/><path class="cls-15" d="M665.39,489.82l-6.48-12.77h4.25l4.32,8.85,4.39-8.85h4l-12.06,23.39h-4Z"/><path class="cls-15" d="M677.85,482.7h8.64v3.67h-8.64Z"/><path class="cls-15" d="M694.15,480.29V492.2h-3.52V480.29h-1.48v-3.24h1.48V471.5h3.52v5.55h2.7v3.24Z"/><path class="cls-15" d="M714.64,484.64a8.1,8.1,0,1,1-8.1-8A7.87,7.87,0,0,1,714.64,484.64Zm-3.6,0c0-3.46-2.27-4.86-4.5-4.86s-4.5,1.4-4.5,4.86c0,2.91,1.73,4.82,4.5,4.82S711,487.59,711,484.68Z"/><path class="cls-15" d="M717.88,482.7h8.64v3.67h-8.64Z"/><path class="cls-15" d="M741.64,477.05h3.52V492.2h-3.52v-1.58a5.83,5.83,0,0,1-4.54,2.05c-4.68,0-7.34-3.89-7.34-8.06,0-4.94,3.38-8,7.38-8a5.54,5.54,0,0,1,4.5,2.16Zm-8.28,7.63c0,2.62,1.65,4.82,4.21,4.82,2.23,0,4.28-1.62,4.28-4.79s-2.05-4.89-4.28-4.89C735,479.82,733.36,482,733.36,484.68Z"/><path class="cls-15" d="M761.36,481.69a5.94,5.94,0,0,0-4.28-1.87,4.55,4.55,0,0,0-3.35,1.33,4.88,4.88,0,0,0-1.29,3.49,5,5,0,0,0,1.37,3.64,4.59,4.59,0,0,0,3.2,1.22,5.91,5.91,0,0,0,4.35-1.94v3.92a8.25,8.25,0,0,1-4.6,1.19,7.39,7.39,0,0,1-5.76-2.23,7.89,7.89,0,0,1-2.16-5.69,8.14,8.14,0,0,1,2.3-5.87,8.24,8.24,0,0,1,6.09-2.23,8.09,8.09,0,0,1,4.13,1.08Z"/><path class="cls-15" d="M776.48,481.69a6,6,0,0,0-4.28-1.87,4.55,4.55,0,0,0-3.35,1.33,4.88,4.88,0,0,0-1.29,3.49,5,5,0,0,0,1.37,3.64,4.59,4.59,0,0,0,3.2,1.22,5.91,5.91,0,0,0,4.35-1.94v3.92a8.25,8.25,0,0,1-4.6,1.19,7.39,7.39,0,0,1-5.76-2.23,7.89,7.89,0,0,1-2.16-5.69,8.14,8.14,0,0,1,2.3-5.87,8.24,8.24,0,0,1,6.09-2.23,8.11,8.11,0,0,1,4.13,1.08Z"/><path class="cls-15" d="M793.44,488.74a7.93,7.93,0,0,1-2.56,2.78,8.33,8.33,0,0,1-4.46,1.15,6.73,6.73,0,0,1-5.11-1.95,8.1,8.1,0,0,1-2.23-5.79,8.9,8.9,0,0,1,2.41-6.23,6.91,6.91,0,0,1,5.08-2.05,6.49,6.49,0,0,1,4.85,2c2,2,2.13,4.82,2.13,6.41v.43H782.68a5,5,0,0,0,1.29,3.06,4.22,4.22,0,0,0,5.11.21,5.43,5.43,0,0,0,1.41-1.65ZM790,482.59a3.68,3.68,0,0,0-1.08-2,3.66,3.66,0,0,0-4.86.11,3.94,3.94,0,0,0-1.08,1.94Z"/><path class="cls-15" d="M803.85,481a2.56,2.56,0,0,0-2.16-1.29,1.5,1.5,0,0,0-1.08.39,1.15,1.15,0,0,0-.33.79,1,1,0,0,0,.51.87c.21.14.43.21,1.18.61l1.8.9a7.5,7.5,0,0,1,2.13,1.4,3.78,3.78,0,0,1,1.11,2.81,5,5,0,0,1-1.33,3.46,5.43,5.43,0,0,1-4.25,1.69,5.25,5.25,0,0,1-3.27-1,5.91,5.91,0,0,1-1.95-2.78l2.88-1.36a4.1,4.1,0,0,0,.83,1.44,2.2,2.2,0,0,0,1.55.57,2.13,2.13,0,0,0,1.44-.5,1.79,1.79,0,0,0,.5-1.19,1.64,1.64,0,0,0-.46-1.15,4.74,4.74,0,0,0-1.52-.94l-1.29-.61a7.29,7.29,0,0,1-2.09-1.3,3.29,3.29,0,0,1-1.08-2.55,4.75,4.75,0,0,1,1.26-3.24,4.89,4.89,0,0,1,3.71-1.44,4.8,4.8,0,0,1,2.81.79,5.29,5.29,0,0,1,1.72,1.87Z"/><path class="cls-15" d="M816.8,481a2.54,2.54,0,0,0-2.15-1.29,1.54,1.54,0,0,0-1.09.39,1.19,1.19,0,0,0-.32.79,1,1,0,0,0,.51.87c.21.14.43.21,1.18.61l1.8.9a7.5,7.5,0,0,1,2.13,1.4,3.78,3.78,0,0,1,1.11,2.81,5,5,0,0,1-1.33,3.46,5.43,5.43,0,0,1-4.25,1.69,5.25,5.25,0,0,1-3.27-1,5.91,5.91,0,0,1-2-2.78l2.88-1.36a4.1,4.1,0,0,0,.83,1.44,2.2,2.2,0,0,0,1.55.57,2.15,2.15,0,0,0,1.44-.5,1.79,1.79,0,0,0,.5-1.19,1.61,1.61,0,0,0-.47-1.15,4.59,4.59,0,0,0-1.51-.94l-1.29-.61a7.29,7.29,0,0,1-2.09-1.3,3.29,3.29,0,0,1-1.08-2.55,4.75,4.75,0,0,1,1.26-3.24,4.87,4.87,0,0,1,3.71-1.44,4.75,4.75,0,0,1,2.8.79,5.21,5.21,0,0,1,1.73,1.87Z"/><path class="cls-15" d="M842.61,477.05h3.53V492.2h-3.53v-1.58a5.8,5.8,0,0,1-4.53,2.05c-4.68,0-7.34-3.89-7.34-8.06,0-4.94,3.38-8,7.38-8a5.51,5.51,0,0,1,4.49,2.16Zm-8.27,7.63c0,2.62,1.65,4.82,4.21,4.82,2.23,0,4.28-1.62,4.28-4.79s-2.05-4.89-4.28-4.89C836,479.82,834.34,482,834.34,484.68Z"/><path class="cls-15" d="M854.14,500.44h-3.53V477.05h3.53v1.65a5.67,5.67,0,0,1,4.5-2.05c4,0,7.37,3.06,7.37,7.88,0,5.11-3.74,8.14-7.34,8.14a6,6,0,0,1-4.53-2.23Zm-.22-15.73c0,3.17,2.05,4.79,4.28,4.79,2.56,0,4.22-2.2,4.22-4.82s-1.66-4.86-4.22-4.86C856,479.82,853.92,481.4,853.92,484.71Z"/><path class="cls-15" d="M873.22,500.44h-3.53V477.05h3.53v1.65a5.67,5.67,0,0,1,4.5-2.05c4,0,7.37,3.06,7.37,7.88,0,5.11-3.74,8.14-7.34,8.14a6,6,0,0,1-4.53-2.23ZM873,484.71c0,3.17,2,4.79,4.28,4.79,2.56,0,4.21-2.2,4.21-4.82s-1.65-4.86-4.21-4.86C875.05,479.82,873,481.4,873,484.71Z"/><path class="cls-15" d="M888.77,477.05h3.53v1.36a6.26,6.26,0,0,1,1.47-1.26,4.15,4.15,0,0,1,2.16-.5,5.17,5.17,0,0,1,2.77.72l-1.44,3.2a3.22,3.22,0,0,0-1.8-.54,2.74,2.74,0,0,0-2.19.83,4.9,4.9,0,0,0-1,3.49v7.85h-3.53Z"/><path class="cls-15" d="M915.41,484.64a8.1,8.1,0,1,1-8.1-8A7.87,7.87,0,0,1,915.41,484.64Zm-3.6,0c0-3.46-2.27-4.86-4.5-4.86s-4.5,1.4-4.5,4.86c0,2.91,1.73,4.82,4.5,4.82S911.81,487.59,911.81,484.68Z"/><path class="cls-15" d="M930.17,477.05h3.52V492.2h-3.52v-1.58a5.83,5.83,0,0,1-4.54,2.05c-4.68,0-7.34-3.89-7.34-8.06,0-4.94,3.38-8,7.38-8a5.54,5.54,0,0,1,4.5,2.16Zm-8.28,7.63c0,2.62,1.65,4.82,4.21,4.82,2.23,0,4.28-1.62,4.28-4.79s-2-4.89-4.28-4.89C923.54,479.82,921.89,482,921.89,484.68Z"/><path class="cls-15" d="M949.89,481.69a6,6,0,0,0-4.28-1.87,4.55,4.55,0,0,0-3.35,1.33,4.88,4.88,0,0,0-1.29,3.49,5,5,0,0,0,1.37,3.64,4.59,4.59,0,0,0,3.2,1.22,5.91,5.91,0,0,0,4.35-1.94v3.92a8.25,8.25,0,0,1-4.6,1.19,7.39,7.39,0,0,1-5.76-2.23,7.89,7.89,0,0,1-2.16-5.69,8.14,8.14,0,0,1,2.3-5.87,8.24,8.24,0,0,1,6.09-2.23,8.11,8.11,0,0,1,4.13,1.08Z"/><path class="cls-15" d="M953.28,466h3.53v12.38a5.44,5.44,0,0,1,4.07-1.69,5.15,5.15,0,0,1,4.46,2.05,7.5,7.5,0,0,1,1,4.21v9.29h-3.53v-9a3.68,3.68,0,0,0-.68-2.63,2.67,2.67,0,0,0-2-.79,3.11,3.11,0,0,0-2.59,1.26c-.51.72-.72,1.87-.72,3.81v7.31h-3.53Z"/><path class="cls-15" d="M981.11,477.05l3.92,8.67,4.25-10,4.25,10,3.92-8.67h4l-7.88,16.23-4.25-9.68L985,493.28l-7.88-16.23Z"/><path class="cls-15" d="M1003.86,466h3.53v12.38a5.42,5.42,0,0,1,4.06-1.69,5.16,5.16,0,0,1,4.47,2.05,7.5,7.5,0,0,1,1,4.21v9.29h-3.53v-9a3.68,3.68,0,0,0-.68-2.63,2.67,2.67,0,0,0-2-.79,3.1,3.1,0,0,0-2.59,1.26c-.51.72-.72,1.87-.72,3.81v7.31h-3.53Z"/><path class="cls-15" d="M1034.53,488.74a7.93,7.93,0,0,1-2.56,2.78,8.33,8.33,0,0,1-4.46,1.15,6.72,6.72,0,0,1-5.11-1.95,8.1,8.1,0,0,1-2.23-5.79,8.9,8.9,0,0,1,2.41-6.23,6.89,6.89,0,0,1,5.07-2.05,6.5,6.5,0,0,1,4.86,2c2,2,2.13,4.82,2.13,6.41v.43h-10.87a5,5,0,0,0,1.29,3.06,3.6,3.6,0,0,0,2.7,1,3.66,3.66,0,0,0,2.41-.76,5.43,5.43,0,0,0,1.41-1.65Zm-3.49-6.15a3.68,3.68,0,0,0-1.08-2,3.66,3.66,0,0,0-4.86.11,3.86,3.86,0,0,0-1.08,1.94Z"/><path class="cls-15" d="M1038.27,477.05h3.53v1.4a5.23,5.23,0,0,1,4.11-1.8,5.07,5.07,0,0,1,4.46,2.05c.58.83.94,1.87.94,4.21v9.29h-3.53v-8.42c0-3.85-1.44-4-2.77-4-1.59,0-3.21.21-3.21,5.11v7.27h-3.53Z"/><path class="cls-15" d="M273,524.89a6,6,0,0,0-4.28-1.87,4.53,4.53,0,0,0-3.35,1.33,4.84,4.84,0,0,0-1.3,3.49,5,5,0,0,0,1.37,3.64,4.6,4.6,0,0,0,3.2,1.22,5.93,5.93,0,0,0,4.36-1.94v3.92a8.29,8.29,0,0,1-4.61,1.19,7.39,7.39,0,0,1-5.76-2.23,7.89,7.89,0,0,1-2.16-5.69,8.1,8.1,0,0,1,2.31-5.87A9,9,0,0,1,273,520.93Z"/><path class="cls-15" d="M276.39,520.25h3.52v1.36a6.31,6.31,0,0,1,1.48-1.26,4.12,4.12,0,0,1,2.16-.5,5.19,5.19,0,0,1,2.77.72l-1.44,3.2a3.22,3.22,0,0,0-1.8-.54,2.76,2.76,0,0,0-2.2.83,4.89,4.89,0,0,0-1,3.49v7.85h-3.52Z"/><path class="cls-15" d="M300.79,532a8.05,8.05,0,0,1-2.55,2.77,8.39,8.39,0,0,1-4.47,1.15,6.73,6.73,0,0,1-5.11-2,8.12,8.12,0,0,1-2.23-5.79,8.9,8.9,0,0,1,2.41-6.23,6.91,6.91,0,0,1,5.08-2,6.51,6.51,0,0,1,4.86,2c1.94,2,2.12,4.82,2.12,6.41v.43H290a5,5,0,0,0,1.29,3.06,3.6,3.6,0,0,0,2.7,1,3.78,3.78,0,0,0,2.42-.75,5.42,5.42,0,0,0,1.4-1.66Zm-3.49-6.16a3.62,3.62,0,0,0-1.08-2,3.66,3.66,0,0,0-4.86.11,3.94,3.94,0,0,0-1.08,1.94Z"/><path class="cls-15" d="M315.66,520.25h3.53V535.4h-3.53v-1.58a5.83,5.83,0,0,1-4.54,2c-4.68,0-7.34-3.89-7.34-8.07,0-4.93,3.38-7.95,7.38-7.95a5.53,5.53,0,0,1,4.5,2.16Zm-8.28,7.63c0,2.62,1.66,4.82,4.21,4.82,2.23,0,4.29-1.62,4.29-4.79s-2.06-4.89-4.29-4.89C309,523,307.38,525.18,307.38,527.88Z"/><path class="cls-15" d="M327.29,523.49V535.4h-3.53V523.49h-1.48v-3.24h1.48V514.7h3.53v5.55H330v3.24Z"/><path class="cls-15" d="M334.13,511.71a2.27,2.27,0,1,1-2.27,2.27A2.23,2.23,0,0,1,334.13,511.71Zm1.76,8.54V535.4h-3.53V520.25Z"/><path class="cls-15" d="M340.32,520.25h3.53v1.4a5.22,5.22,0,0,1,4.1-1.8,5,5,0,0,1,4.46,2c.58.83.94,1.87.94,4.21v9.29h-3.53V527c0-3.85-1.44-4-2.77-4-1.58,0-3.2.21-3.2,5.11v7.27h-3.53Z"/><path class="cls-15" d="M368.9,520.25h3.53v13.93c0,3.56-.4,6.12-2.48,7.88a7.74,7.74,0,0,1-5,1.62,6.69,6.69,0,0,1-5-1.87,8.49,8.49,0,0,1-2.23-4.72h3.42a5,5,0,0,0,1.11,2.38,3.61,3.61,0,0,0,2.74,1,3.76,3.76,0,0,0,2.77-1,5,5,0,0,0,1.15-3.81v-2a5.5,5.5,0,0,1-4.61,2.16,6.43,6.43,0,0,1-5-2,8.56,8.56,0,0,1-2.27-6,8.07,8.07,0,0,1,2.23-5.86,6.91,6.91,0,0,1,5.15-2.09,5.69,5.69,0,0,1,4.5,2ZM362.17,524a5.56,5.56,0,0,0,0,7.66,4.11,4.11,0,0,0,2.7,1,3.86,3.86,0,0,0,3-1.22,5.61,5.61,0,0,0-.11-7.38,3.74,3.74,0,0,0-2.85-1.08A3.63,3.63,0,0,0,362.17,524Z"/><path class="cls-15" d="M385.25,520.25h3.52v1.4a5.24,5.24,0,0,1,4.11-1.8,5.05,5.05,0,0,1,4.46,2c.58.83.94,1.87.94,4.21v9.29h-3.53V527c0-3.85-1.44-4-2.77-4-1.59,0-3.21.21-3.21,5.11v7.27h-3.52Z"/><path class="cls-15" d="M416.31,532a8.05,8.05,0,0,1-2.55,2.77,8.39,8.39,0,0,1-4.47,1.15,6.73,6.73,0,0,1-5.11-2,8.12,8.12,0,0,1-2.23-5.79,8.9,8.9,0,0,1,2.41-6.23,6.91,6.91,0,0,1,5.08-2,6.51,6.51,0,0,1,4.86,2c1.94,2,2.12,4.82,2.12,6.41v.43H405.55a5,5,0,0,0,1.3,3.06,3.58,3.58,0,0,0,2.7,1A3.77,3.77,0,0,0,412,532a5.42,5.42,0,0,0,1.4-1.66Zm-3.49-6.16a3.62,3.62,0,0,0-1.08-2,3.66,3.66,0,0,0-4.86.11,3.94,3.94,0,0,0-1.08,1.94Z"/><path class="cls-15" d="M421.64,520.25l3.93,8.67,4.24-10,4.25,10,3.92-8.67h4l-7.88,16.23-4.25-9.68-4.24,9.68-7.89-16.23Z"/><path class="cls-15" d="M463.87,520.25h3.53V535.4h-3.53v-1.58a5.83,5.83,0,0,1-4.54,2c-4.68,0-7.34-3.89-7.34-8.07,0-4.93,3.38-7.95,7.38-7.95a5.54,5.54,0,0,1,4.5,2.16Zm-8.28,7.63c0,2.62,1.66,4.82,4.21,4.82,2.23,0,4.28-1.62,4.28-4.79S462,523,459.8,523C457.25,523,455.59,525.18,455.59,527.88Z"/><path class="cls-15" d="M471.86,520.25h3.53v1.36a6.47,6.47,0,0,1,1.47-1.26,4.15,4.15,0,0,1,2.16-.5,5.23,5.23,0,0,1,2.78.72l-1.44,3.2a3.24,3.24,0,0,0-1.8-.54,2.75,2.75,0,0,0-2.2.83,4.89,4.89,0,0,0-1,3.49v7.85h-3.53Z"/><path class="cls-15" d="M488.17,523.49V535.4h-3.53V523.49h-1.47v-3.24h1.47V514.7h3.53v5.55h2.7v3.24Z"/><path class="cls-15" d="M495,511.71a2.27,2.27,0,1,1-2.27,2.27A2.23,2.23,0,0,1,495,511.71Zm1.76,8.54V535.4h-3.53V520.25Z"/><path class="cls-15" d="M505.12,523.49V535.4H501.6V523.49h-1.52v-3.24h1.52V515a6.74,6.74,0,0,1,1.47-4.75,4.78,4.78,0,0,1,3.6-1.48,5.56,5.56,0,0,1,2.27.44v3.49a3.07,3.07,0,0,0-1.69-.54,2.05,2.05,0,0,0-1.55.57,2.5,2.5,0,0,0-.58,1.8v5.73h3.82v3.24Z"/><path class="cls-15" d="M522,520.25h3.53V535.4H522v-1.58a5.81,5.81,0,0,1-4.53,2c-4.68,0-7.35-3.89-7.35-8.07,0-4.93,3.39-7.95,7.38-7.95A5.53,5.53,0,0,1,522,522Zm-8.28,7.63c0,2.62,1.66,4.82,4.21,4.82,2.24,0,4.29-1.62,4.29-4.79s-2-4.89-4.29-4.89C515.42,523,513.76,525.18,513.76,527.88Z"/><path class="cls-15" d="M541.77,524.89a6,6,0,0,0-4.28-1.87,4.53,4.53,0,0,0-3.35,1.33,4.84,4.84,0,0,0-1.3,3.49,5,5,0,0,0,1.37,3.64,4.6,4.6,0,0,0,3.2,1.22,5.93,5.93,0,0,0,4.36-1.94v3.92a8.29,8.29,0,0,1-4.61,1.19,7.39,7.39,0,0,1-5.76-2.23,7.89,7.89,0,0,1-2.16-5.69,8.1,8.1,0,0,1,2.31-5.87,9,9,0,0,1,10.22-1.15Z"/><path class="cls-15" d="M548.79,523.49V535.4h-3.53V523.49h-1.47v-3.24h1.47V514.7h3.53v5.55h2.7v3.24Z"/><path class="cls-15" d="M560.49,524.24a2.54,2.54,0,0,0-2.16-1.29,1.53,1.53,0,0,0-1.08.39,1.14,1.14,0,0,0-.32.79,1,1,0,0,0,.5.87c.22.14.43.21,1.19.61l1.8.9a7.31,7.31,0,0,1,2.12,1.4,3.75,3.75,0,0,1,1.12,2.81,5.07,5.07,0,0,1-1.33,3.46,5.44,5.44,0,0,1-4.25,1.69,5.28,5.28,0,0,1-3.28-1,5.91,5.91,0,0,1-1.94-2.78l2.88-1.36a4,4,0,0,0,.83,1.44,2.17,2.17,0,0,0,1.54.57,2.13,2.13,0,0,0,1.44-.5,1.8,1.8,0,0,0,.51-1.19,1.65,1.65,0,0,0-.47-1.15,4.87,4.87,0,0,0-1.51-.94l-1.3-.61a7.63,7.63,0,0,1-2.09-1.29,3.33,3.33,0,0,1-1.08-2.56,4.75,4.75,0,0,1,1.26-3.24,4.9,4.9,0,0,1,3.71-1.44,4.78,4.78,0,0,1,2.81.79,5.3,5.3,0,0,1,1.73,1.87Z"/><path class="cls-15" d="M586.3,520.25h3.53V535.4H586.3v-1.58a5.82,5.82,0,0,1-4.53,2c-4.68,0-7.35-3.89-7.35-8.07,0-4.93,3.39-7.95,7.38-7.95a5.53,5.53,0,0,1,4.5,2.16ZM578,527.88c0,2.62,1.66,4.82,4.21,4.82,2.23,0,4.29-1.62,4.29-4.79s-2.06-4.89-4.29-4.89C579.68,523,578,525.18,578,527.88Z"/><path class="cls-15" d="M594.26,520.25h3.53v1.4a5.21,5.21,0,0,1,4.1-1.8,5.05,5.05,0,0,1,4.46,2c.58.83.94,1.87.94,4.21v9.29h-3.53V527c0-3.85-1.44-4-2.77-4-1.58,0-3.2.21-3.2,5.11v7.27h-3.53Z"/><path class="cls-15" d="M622.84,509.16h3.53V535.4h-3.53v-1.58a5.83,5.83,0,0,1-4.54,2c-4.68,0-7.34-3.89-7.34-8.07,0-4.93,3.38-7.95,7.38-7.95a5.53,5.53,0,0,1,4.5,2.16Zm-8.28,18.72c0,2.62,1.66,4.82,4.21,4.82,2.23,0,4.29-1.62,4.29-4.79S621,523,618.77,523C616.22,523,614.56,525.18,614.56,527.88Z"/><path class="cls-15" d="M639.22,520.25h3.53v1.4a4.67,4.67,0,0,1,3.74-1.8,4.47,4.47,0,0,1,3.93,2.23,5.35,5.35,0,0,1,4.49-2.23,4.83,4.83,0,0,1,4.32,2.38A7.39,7.39,0,0,1,660,526v9.36H656.5v-8.35a6.83,6.83,0,0,0-.33-2.7,2,2,0,0,0-2-1.33,2.62,2.62,0,0,0-2.09,1.11,6.19,6.19,0,0,0-.68,3.46v7.81h-3.53v-8.35a7.15,7.15,0,0,0-.32-2.7,2,2,0,0,0-2-1.33,2.63,2.63,0,0,0-2.09,1.11,6.19,6.19,0,0,0-.68,3.46v7.81h-3.53Z"/><path class="cls-15" d="M675.58,520.25h3.53V535.4h-3.53v-1.58a5.83,5.83,0,0,1-4.54,2c-4.68,0-7.34-3.89-7.34-8.07,0-4.93,3.38-7.95,7.38-7.95a5.53,5.53,0,0,1,4.5,2.16Zm-8.28,7.63c0,2.62,1.66,4.82,4.21,4.82,2.23,0,4.29-1.62,4.29-4.79s-2.06-4.89-4.29-4.89C669,523,667.3,525.18,667.3,527.88Z"/><path class="cls-15" d="M687.21,523.49V535.4h-3.53V523.49H682.2v-3.24h1.48V514.7h3.53v5.55h2.7v3.24Z"/><path class="cls-15" d="M705.85,532a8,8,0,0,1-2.55,2.77,8.35,8.35,0,0,1-4.46,1.15,6.74,6.74,0,0,1-5.12-2,8.12,8.12,0,0,1-2.23-5.79,8.9,8.9,0,0,1,2.41-6.23,6.91,6.91,0,0,1,5.08-2,6.51,6.51,0,0,1,4.86,2c1.94,2,2.12,4.82,2.12,6.41v.43H695.09a5,5,0,0,0,1.3,3.06,3.59,3.59,0,0,0,2.7,1,3.77,3.77,0,0,0,2.41-.75,5.42,5.42,0,0,0,1.4-1.66Zm-3.49-6.16a3.62,3.62,0,0,0-1.08-2,3.36,3.36,0,0,0-2.37-.87,3.4,3.4,0,0,0-2.49,1,3.94,3.94,0,0,0-1.08,1.94Z"/><path class="cls-15" d="M709.64,520.25h3.52v1.36a6.52,6.52,0,0,1,1.48-1.26,4.12,4.12,0,0,1,2.16-.5,5.19,5.19,0,0,1,2.77.72l-1.44,3.2a3.22,3.22,0,0,0-1.8-.54,2.74,2.74,0,0,0-2.19.83,4.85,4.85,0,0,0-1,3.49v7.85h-3.52Z"/><path class="cls-15" d="M723.35,511.71a2.27,2.27,0,1,1-2.27,2.27A2.22,2.22,0,0,1,723.35,511.71Zm1.76,8.54V535.4h-3.52V520.25Z"/><path class="cls-15" d="M740.67,520.25h3.52V535.4h-3.52v-1.58a5.83,5.83,0,0,1-4.54,2c-4.68,0-7.34-3.89-7.34-8.07,0-4.93,3.38-7.95,7.38-7.95a5.54,5.54,0,0,1,4.5,2.16Zm-8.28,7.63c0,2.62,1.65,4.82,4.21,4.82,2.23,0,4.28-1.62,4.28-4.79s-2-4.89-4.28-4.89C734,523,732.39,525.18,732.39,527.88Z"/><path class="cls-15" d="M752.19,509.16V535.4h-3.53V509.16Z"/><path class="cls-15" d="M763.27,524.24a2.54,2.54,0,0,0-2.16-1.29,1.53,1.53,0,0,0-1.08.39,1.14,1.14,0,0,0-.32.79,1,1,0,0,0,.5.87c.22.14.44.21,1.19.61l1.8.9a7.5,7.5,0,0,1,2.13,1.4,3.78,3.78,0,0,1,1.11,2.81,5,5,0,0,1-1.33,3.46,5.43,5.43,0,0,1-4.25,1.69,5.25,5.25,0,0,1-3.27-1,5.86,5.86,0,0,1-2-2.78l2.88-1.36a4.1,4.1,0,0,0,.83,1.44,2.2,2.2,0,0,0,1.55.57,2.15,2.15,0,0,0,1.44-.5,1.79,1.79,0,0,0,.5-1.19,1.61,1.61,0,0,0-.47-1.15,4.76,4.76,0,0,0-1.51-.94l-1.29-.61a7.34,7.34,0,0,1-2.09-1.29,3.33,3.33,0,0,1-1.08-2.56,4.75,4.75,0,0,1,1.26-3.24,4.87,4.87,0,0,1,3.71-1.44,4.75,4.75,0,0,1,2.8.79,5.21,5.21,0,0,1,1.73,1.87Z"/><path class="cls-15" d="M771.7,531.51a2.16,2.16,0,1,1-2.16,2.16A2.16,2.16,0,0,1,771.7,531.51Z"/><path class="cls-15" d="M793.94,514.85V535.4h-3.67V514.85h-5.5v-3.46h14.68v3.46Z"/><path class="cls-15" d="M801,509.16h3.53v12.38a5.44,5.44,0,0,1,4.07-1.69,5.15,5.15,0,0,1,4.46,2,7.44,7.44,0,0,1,1,4.21v9.29h-3.53v-9a3.64,3.64,0,0,0-.69-2.63,2.66,2.66,0,0,0-2-.79,3.12,3.12,0,0,0-2.59,1.26c-.5.72-.72,1.87-.72,3.81v7.31H801Z"/><path class="cls-15" d="M820.22,511.71A2.27,2.27,0,1,1,818,514,2.22,2.22,0,0,1,820.22,511.71Zm1.77,8.54V535.4h-3.53V520.25Z"/><path class="cls-15" d="M833.08,524.24a2.56,2.56,0,0,0-2.16-1.29,1.5,1.5,0,0,0-1.08.39,1.15,1.15,0,0,0-.33.79,1,1,0,0,0,.51.87c.21.14.43.21,1.18.61l1.8.9a7.5,7.5,0,0,1,2.13,1.4,3.78,3.78,0,0,1,1.11,2.81,5,5,0,0,1-1.33,3.46,5.43,5.43,0,0,1-4.25,1.69,5.25,5.25,0,0,1-3.27-1,5.86,5.86,0,0,1-1.95-2.78l2.88-1.36a4.1,4.1,0,0,0,.83,1.44,2.2,2.2,0,0,0,1.55.57,2.13,2.13,0,0,0,1.44-.5,1.79,1.79,0,0,0,.5-1.19,1.64,1.64,0,0,0-.46-1.15,4.92,4.92,0,0,0-1.52-.94l-1.29-.61a7.48,7.48,0,0,1-2.09-1.29,3.33,3.33,0,0,1-1.08-2.56,4.75,4.75,0,0,1,1.26-3.24,4.89,4.89,0,0,1,3.71-1.44,4.8,4.8,0,0,1,2.81.79,5.29,5.29,0,0,1,1.72,1.87Z"/><path class="cls-15" d="M847.8,520.25h3.53v1.4a4.66,4.66,0,0,1,3.74-1.8,4.46,4.46,0,0,1,3.92,2.23,5.37,5.37,0,0,1,4.5-2.23,4.83,4.83,0,0,1,4.32,2.38,7.43,7.43,0,0,1,.79,3.81v9.36h-3.52v-8.35a6.83,6.83,0,0,0-.33-2.7,2,2,0,0,0-2-1.33,2.62,2.62,0,0,0-2.09,1.11,6.19,6.19,0,0,0-.68,3.46v7.81h-3.53v-8.35a6.83,6.83,0,0,0-.33-2.7,2,2,0,0,0-2-1.33,2.62,2.62,0,0,0-2.09,1.11,6.19,6.19,0,0,0-.68,3.46v7.81H847.8Z"/><path class="cls-15" d="M884.16,520.25h3.53V535.4h-3.53v-1.58a5.83,5.83,0,0,1-4.54,2c-4.68,0-7.34-3.89-7.34-8.07,0-4.93,3.38-7.95,7.38-7.95a5.54,5.54,0,0,1,4.5,2.16Zm-8.28,7.63c0,2.62,1.65,4.82,4.21,4.82,2.23,0,4.28-1.62,4.28-4.79s-2-4.89-4.28-4.89C877.53,523,875.88,525.18,875.88,527.88Z"/><path class="cls-15" d="M896.61,533l-6.48-12.78h4.25l4.32,8.85,4.39-8.85h4L895,543.64h-4Z"/><path class="cls-15" d="M919.65,511.71a2.27,2.27,0,1,1-2.26,2.27A2.22,2.22,0,0,1,919.65,511.71Zm1.77,8.54V535.4h-3.53V520.25Z"/><path class="cls-15" d="M925.85,520.25h3.52v1.4a5.23,5.23,0,0,1,4.11-1.8,5.07,5.07,0,0,1,4.46,2c.58.83.94,1.87.94,4.21v9.29h-3.53V527c0-3.85-1.44-4-2.77-4-1.59,0-3.21.21-3.21,5.11v7.27h-3.52Z"/><path class="cls-15" d="M955.08,524.89a6,6,0,0,0-4.29-1.87,4.55,4.55,0,0,0-3.35,1.33,4.88,4.88,0,0,0-1.29,3.49,5,5,0,0,0,1.37,3.64,4.59,4.59,0,0,0,3.2,1.22,6,6,0,0,0,4.36-1.94v3.92a8.32,8.32,0,0,1-4.61,1.19,7.39,7.39,0,0,1-5.76-2.23,7.89,7.89,0,0,1-2.16-5.69,8.14,8.14,0,0,1,2.3-5.87,8.24,8.24,0,0,1,6.09-2.23,8.14,8.14,0,0,1,4.14,1.08Z"/><path class="cls-15" d="M958.46,520.25H962v1.36a6.26,6.26,0,0,1,1.47-1.26,4.15,4.15,0,0,1,2.16-.5,5.23,5.23,0,0,1,2.78.72l-1.44,3.2a3.24,3.24,0,0,0-1.8-.54,2.75,2.75,0,0,0-2.2.83,4.89,4.89,0,0,0-1,3.49v7.85h-3.53Z"/><path class="cls-15" d="M982.87,532a8.08,8.08,0,0,1-2.56,2.77,8.33,8.33,0,0,1-4.46,1.15,6.72,6.72,0,0,1-5.11-2,8.12,8.12,0,0,1-2.24-5.79,8.87,8.87,0,0,1,2.42-6.23,6.89,6.89,0,0,1,5.07-2,6.51,6.51,0,0,1,4.86,2c1.94,2,2.13,4.82,2.13,6.41v.43H972.1a5,5,0,0,0,1.3,3.06,3.6,3.6,0,0,0,2.7,1,3.77,3.77,0,0,0,2.41-.75,5.6,5.6,0,0,0,1.41-1.66Zm-3.49-6.16a3.68,3.68,0,0,0-1.08-2,3.41,3.41,0,0,0-2.38-.87,3.37,3.37,0,0,0-2.48,1,3.86,3.86,0,0,0-1.08,1.94Z"/><path class="cls-15" d="M997.74,520.25h3.52V535.4h-3.52v-1.58a5.83,5.83,0,0,1-4.54,2c-4.68,0-7.34-3.89-7.34-8.07,0-4.93,3.38-7.95,7.38-7.95a5.54,5.54,0,0,1,4.5,2.16Zm-8.28,7.63c0,2.62,1.65,4.82,4.21,4.82,2.23,0,4.28-1.62,4.28-4.79S995.9,523,993.67,523C991.11,523,989.46,525.18,989.46,527.88Z"/><path class="cls-15" d="M1012.35,524.24a2.54,2.54,0,0,0-2.16-1.29,1.53,1.53,0,0,0-1.08.39,1.14,1.14,0,0,0-.32.79,1,1,0,0,0,.5.87c.22.14.43.21,1.19.61l1.8.9a7.31,7.31,0,0,1,2.12,1.4,3.75,3.75,0,0,1,1.12,2.81,5,5,0,0,1-1.33,3.46,5.44,5.44,0,0,1-4.25,1.69,5.28,5.28,0,0,1-3.28-1,5.91,5.91,0,0,1-1.94-2.78l2.88-1.36a4,4,0,0,0,.83,1.44,2.18,2.18,0,0,0,1.55.57,2.15,2.15,0,0,0,1.44-.5,1.84,1.84,0,0,0,.5-1.19,1.61,1.61,0,0,0-.47-1.15,4.76,4.76,0,0,0-1.51-.94l-1.3-.61a7.43,7.43,0,0,1-2.08-1.29,3.29,3.29,0,0,1-1.08-2.56,4.71,4.71,0,0,1,1.26-3.24,4.86,4.86,0,0,1,3.7-1.44,4.78,4.78,0,0,1,2.81.79,5.21,5.21,0,0,1,1.73,1.87Z"/><path class="cls-15" d="M1032.26,532a8.08,8.08,0,0,1-2.56,2.77,8.33,8.33,0,0,1-4.46,1.15,6.72,6.72,0,0,1-5.11-2,8.12,8.12,0,0,1-2.23-5.79,8.86,8.86,0,0,1,2.41-6.23,6.89,6.89,0,0,1,5.07-2,6.51,6.51,0,0,1,4.86,2c2,2,2.13,4.82,2.13,6.41v.43H1021.5a5,5,0,0,0,1.29,3.06,3.6,3.6,0,0,0,2.7,1,3.77,3.77,0,0,0,2.41-.75,5.6,5.6,0,0,0,1.41-1.66Zm-3.49-6.16a3.68,3.68,0,0,0-1.08-2,3.66,3.66,0,0,0-4.86.11,3.86,3.86,0,0,0-1.08,1.94Z"/><path class="cls-15" d="M270.86,563.45l3.92,8.67,4.25-10,4.25,10,3.92-8.67h4l-7.88,16.23L279,570l-4.25,9.68-7.88-16.23Z"/><path class="cls-15" d="M308.62,571a8.1,8.1,0,1,1-8.1-8A7.88,7.88,0,0,1,308.62,571Zm-3.6,0c0-3.46-2.27-4.86-4.5-4.86s-4.5,1.4-4.5,4.86c0,2.91,1.73,4.82,4.5,4.82S305,574,305,571.08Z"/><path class="cls-15" d="M312.29,563.45h3.53v1.36a6.31,6.31,0,0,1,1.48-1.26,4.1,4.1,0,0,1,2.16-.5,5.19,5.19,0,0,1,2.77.72l-1.44,3.2a3.22,3.22,0,0,0-1.8-.54,2.76,2.76,0,0,0-2.2.83,4.89,4.89,0,0,0-1,3.49v7.85h-3.53Z"/><path class="cls-15" d="M327.77,552.36v16.16l4.93-5.07h4.68l-6.51,6.3,7,8.85h-4.46l-5-6.48-.65.65v5.83h-3.53V552.36Z"/><path class="cls-15" d="M343.68,586.84h-3.52V563.45h3.52v1.65a5.7,5.7,0,0,1,4.5-2.05c4,0,7.38,3.06,7.38,7.88,0,5.11-3.74,8.14-7.34,8.14a6,6,0,0,1-4.54-2.23Zm-.21-15.73c0,3.17,2,4.79,4.28,4.79,2.56,0,4.21-2.19,4.21-4.82s-1.65-4.86-4.21-4.86C345.52,566.22,343.47,567.8,343.47,571.11Z"/><path class="cls-15" d="M362.76,552.36V578.6h-3.52V552.36Z"/><path class="cls-15" d="M378.31,563.45h3.53V578.6h-3.53V577a5.8,5.8,0,0,1-4.53,2.05c-4.68,0-7.34-3.89-7.34-8.07,0-4.93,3.38-8,7.37-8a5.53,5.53,0,0,1,4.5,2.16ZM370,571.08c0,2.63,1.65,4.82,4.21,4.82,2.23,0,4.28-1.62,4.28-4.79s-2-4.89-4.28-4.89C371.69,566.22,370,568.38,370,571.08Z"/><path class="cls-15" d="M398,568.09a6,6,0,0,0-4.28-1.87,4.53,4.53,0,0,0-3.35,1.33,4.84,4.84,0,0,0-1.29,3.49,5.07,5.07,0,0,0,1.36,3.64,4.63,4.63,0,0,0,3.21,1.22A5.91,5.91,0,0,0,398,574v3.92a8.29,8.29,0,0,1-4.61,1.19,7.38,7.38,0,0,1-5.75-2.23,7.89,7.89,0,0,1-2.16-5.69,8.08,8.08,0,0,1,2.3-5.87,8.23,8.23,0,0,1,6.08-2.23,8.14,8.14,0,0,1,4.14,1.08Z"/><path class="cls-15" d="M415,575.14a8,8,0,0,1-2.56,2.78,8.33,8.33,0,0,1-4.46,1.15,6.72,6.72,0,0,1-5.11-2,8.12,8.12,0,0,1-2.23-5.79,8.86,8.86,0,0,1,2.41-6.23,6.89,6.89,0,0,1,5.07-2.05,6.51,6.51,0,0,1,4.86,2c1.95,2,2.13,4.82,2.13,6.41v.43H404.24a5,5,0,0,0,1.29,3.06,3.6,3.6,0,0,0,2.7,1,3.72,3.72,0,0,0,2.41-.76,5.57,5.57,0,0,0,1.41-1.65ZM411.51,569a3.68,3.68,0,0,0-1.08-2,3.67,3.67,0,0,0-4.86.1,3.94,3.94,0,0,0-1.08,2Z"/><path class="cls-15" d="M440.74,575.14a8,8,0,0,1-2.56,2.78,8.33,8.33,0,0,1-4.46,1.15,6.72,6.72,0,0,1-5.11-2,8.12,8.12,0,0,1-2.23-5.79,8.86,8.86,0,0,1,2.41-6.23,6.89,6.89,0,0,1,5.07-2.05,6.51,6.51,0,0,1,4.86,2c1.95,2,2.13,4.82,2.13,6.41v.43H430a5,5,0,0,0,1.3,3.06,3.6,3.6,0,0,0,2.7,1,3.72,3.72,0,0,0,2.41-.76,5.57,5.57,0,0,0,1.41-1.65ZM437.25,569a3.68,3.68,0,0,0-1.08-2,3.67,3.67,0,0,0-4.86.1,3.94,3.94,0,0,0-1.08,2Z"/><path class="cls-15" d="M448.41,566.69V578.6h-3.53V566.69h-1.51v-3.24h1.51v-5.26a6.74,6.74,0,0,1,1.47-4.75A4.78,4.78,0,0,1,450,552a5.53,5.53,0,0,1,2.27.44v3.49a3.07,3.07,0,0,0-1.69-.54,2.06,2.06,0,0,0-1.55.57,2.51,2.51,0,0,0-.57,1.8v5.73h3.81v3.24Z"/><path class="cls-15" d="M457.84,566.69V578.6h-3.53V566.69h-1.22v-3.24h1.22v-5a6.77,6.77,0,0,1,.94-4.14c.79-1.12,2.34-2.34,5.25-2.34,3.49,0,4.72,1.51,5.26,2.34a7,7,0,0,1,.93,4.14v1h-3.52v-.65a4.39,4.39,0,0,0-.44-2.34,2.38,2.38,0,0,0-2.23-1.15,2.34,2.34,0,0,0-2.23,1.15,4.41,4.41,0,0,0-.43,2.34v4.65h3.81v3.24Zm8.85-3.24V578.6h-3.52V563.45Z"/><path class="cls-15" d="M482.89,568.09a6,6,0,0,0-4.28-1.87,4.53,4.53,0,0,0-3.35,1.33A4.84,4.84,0,0,0,474,571a5.07,5.07,0,0,0,1.36,3.64,4.63,4.63,0,0,0,3.21,1.22,5.91,5.91,0,0,0,4.35-1.94v3.92a8.28,8.28,0,0,1-4.6,1.19,7.39,7.39,0,0,1-5.76-2.23,7.89,7.89,0,0,1-2.16-5.69,8.08,8.08,0,0,1,2.3-5.87,8.23,8.23,0,0,1,6.08-2.23,8.14,8.14,0,0,1,4.14,1.08Z"/><path class="cls-15" d="M488,554.92a2.27,2.27,0,1,1-2.27,2.26A2.21,2.21,0,0,1,488,554.92Zm1.77,8.53V578.6h-3.53V563.45Z"/><path class="cls-15" d="M507.84,575.14a7.93,7.93,0,0,1-2.56,2.78,8.33,8.33,0,0,1-4.46,1.15,6.72,6.72,0,0,1-5.11-2,8.12,8.12,0,0,1-2.23-5.79,8.9,8.9,0,0,1,2.41-6.23,6.89,6.89,0,0,1,5.07-2.05,6.5,6.5,0,0,1,4.86,2c1.95,2,2.13,4.82,2.13,6.41v.43H497.08a5,5,0,0,0,1.29,3.06,3.6,3.6,0,0,0,2.7,1,3.72,3.72,0,0,0,2.41-.76,5.43,5.43,0,0,0,1.41-1.65ZM504.35,569a3.68,3.68,0,0,0-1.08-2,3.67,3.67,0,0,0-4.86.1,3.94,3.94,0,0,0-1.08,2Z"/><path class="cls-15" d="M511.58,563.45h3.53v1.4a5.23,5.23,0,0,1,4.11-1.8,5.07,5.07,0,0,1,4.46,2.05c.58.83.94,1.87.94,4.21v9.29h-3.53v-8.42c0-3.85-1.44-4-2.77-4-1.59,0-3.21.21-3.21,5.11v7.27h-3.53Z"/><path class="cls-15" d="M540.82,568.09a6,6,0,0,0-4.29-1.87,4.55,4.55,0,0,0-3.35,1.33,4.88,4.88,0,0,0-1.29,3.49,5,5,0,0,0,1.37,3.64,4.59,4.59,0,0,0,3.2,1.22,6,6,0,0,0,4.36-1.94v3.92a8.32,8.32,0,0,1-4.61,1.19,7.39,7.39,0,0,1-5.76-2.23,7.89,7.89,0,0,1-2.16-5.69,8.12,8.12,0,0,1,2.3-5.87,8.24,8.24,0,0,1,6.09-2.23,8.14,8.14,0,0,1,4.14,1.08Z"/><path class="cls-15" d="M548.66,576.22l-6.48-12.77h4.25l4.32,8.85,4.39-8.85h4L547,586.84h-4Z"/><path class="cls-15" d="M581,563.45h3.52V578.6H581V577a5.83,5.83,0,0,1-4.54,2.05c-4.68,0-7.34-3.89-7.34-8.07,0-4.93,3.38-8,7.38-8a5.54,5.54,0,0,1,4.5,2.16Zm-8.28,7.63c0,2.63,1.65,4.82,4.21,4.82,2.23,0,4.28-1.62,4.28-4.79s-2-4.89-4.28-4.89C574.4,566.22,572.75,568.38,572.75,571.08Z"/><path class="cls-15" d="M600.75,568.09a6,6,0,0,0-4.28-1.87,4.53,4.53,0,0,0-3.35,1.33,4.88,4.88,0,0,0-1.29,3.49,5,5,0,0,0,1.37,3.64,4.59,4.59,0,0,0,3.2,1.22,5.91,5.91,0,0,0,4.35-1.94v3.92a8.25,8.25,0,0,1-4.6,1.19,7.39,7.39,0,0,1-5.76-2.23,7.89,7.89,0,0,1-2.16-5.69,8.12,8.12,0,0,1,2.3-5.87,8.23,8.23,0,0,1,6.08-2.23,8.12,8.12,0,0,1,4.14,1.08Z"/><path class="cls-15" d="M604.14,563.45h3.53v1.36a6.26,6.26,0,0,1,1.47-1.26,4.15,4.15,0,0,1,2.16-.5,5.17,5.17,0,0,1,2.77.72l-1.44,3.2a3.22,3.22,0,0,0-1.8-.54,2.74,2.74,0,0,0-2.19.83,4.89,4.89,0,0,0-1,3.49v7.85h-3.53Z"/><path class="cls-15" d="M630.78,571a8.1,8.1,0,1,1-8.1-8A7.88,7.88,0,0,1,630.78,571Zm-3.6,0c0-3.46-2.27-4.86-4.5-4.86s-4.5,1.4-4.5,4.86c0,2.91,1.73,4.82,4.5,4.82S627.18,574,627.18,571.08Z"/><path class="cls-15" d="M641.07,567.44a2.54,2.54,0,0,0-2.15-1.29,1.5,1.5,0,0,0-1.08.39,1.15,1.15,0,0,0-.33.79,1,1,0,0,0,.51.87c.21.14.43.21,1.18.61l1.8.9a7.5,7.5,0,0,1,2.13,1.4,3.78,3.78,0,0,1,1.11,2.81,5,5,0,0,1-1.33,3.46,5.43,5.43,0,0,1-4.25,1.69,5.25,5.25,0,0,1-3.27-1,5.91,5.91,0,0,1-1.95-2.78l2.88-1.36a4.1,4.1,0,0,0,.83,1.44,2.2,2.2,0,0,0,1.55.57,2.15,2.15,0,0,0,1.44-.5,1.79,1.79,0,0,0,.5-1.19,1.61,1.61,0,0,0-.47-1.15,4.76,4.76,0,0,0-1.51-.94l-1.29-.61a7.48,7.48,0,0,1-2.09-1.29,3.33,3.33,0,0,1-1.08-2.56,4.75,4.75,0,0,1,1.26-3.24,4.89,4.89,0,0,1,3.71-1.44,4.75,4.75,0,0,1,2.8.79,5.21,5.21,0,0,1,1.73,1.87Z"/><path class="cls-15" d="M654,567.44a2.54,2.54,0,0,0-2.16-1.29,1.53,1.53,0,0,0-1.08.39,1.14,1.14,0,0,0-.32.79,1,1,0,0,0,.5.87c.22.14.44.21,1.19.61l1.8.9a7.5,7.5,0,0,1,2.13,1.4,3.78,3.78,0,0,1,1.11,2.81,5,5,0,0,1-1.33,3.46,5.43,5.43,0,0,1-4.25,1.69,5.25,5.25,0,0,1-3.27-1,5.91,5.91,0,0,1-2-2.78l2.88-1.36a4.1,4.1,0,0,0,.83,1.44,2.2,2.2,0,0,0,1.55.57,2.15,2.15,0,0,0,1.44-.5,1.79,1.79,0,0,0,.5-1.19,1.61,1.61,0,0,0-.47-1.15,4.76,4.76,0,0,0-1.51-.94l-1.29-.61a7.34,7.34,0,0,1-2.09-1.29,3.33,3.33,0,0,1-1.08-2.56,4.75,4.75,0,0,1,1.26-3.24,4.87,4.87,0,0,1,3.71-1.44,4.75,4.75,0,0,1,2.8.79,5.21,5.21,0,0,1,1.73,1.87Z"/><path class="cls-15" d="M672.39,566.69V578.6h-3.52V566.69h-1.48v-3.24h1.48V557.9h3.52v5.55h2.7v3.24Z"/><path class="cls-15" d="M677.47,552.36H681v12.38a5.42,5.42,0,0,1,4.06-1.69,5.16,5.16,0,0,1,4.47,2.05,7.5,7.5,0,0,1,1,4.21v9.29H687v-9a3.68,3.68,0,0,0-.68-2.63,2.67,2.67,0,0,0-2-.79,3.11,3.11,0,0,0-2.59,1.26c-.51.72-.72,1.87-.72,3.81v7.31h-3.53Z"/><path class="cls-15" d="M708.14,575.14a7.93,7.93,0,0,1-2.56,2.78,8.33,8.33,0,0,1-4.46,1.15,6.73,6.73,0,0,1-5.11-2,8.12,8.12,0,0,1-2.23-5.79,8.9,8.9,0,0,1,2.41-6.23,6.91,6.91,0,0,1,5.08-2.05,6.49,6.49,0,0,1,4.85,2c2,2,2.13,4.82,2.13,6.41v.43H697.38a5,5,0,0,0,1.29,3.06,3.6,3.6,0,0,0,2.7,1,3.72,3.72,0,0,0,2.41-.76,5.43,5.43,0,0,0,1.41-1.65ZM704.65,569a3.68,3.68,0,0,0-1.08-2,3.67,3.67,0,0,0-4.86.1,4,4,0,0,0-1.08,2Z"/><path class="cls-15" d="M723.84,565.21a5.53,5.53,0,0,1,4.5-2.16c4,0,7.38,3,7.38,8,0,4.18-2.67,8.07-7.35,8.07a5.8,5.8,0,0,1-4.53-2.05v1.58h-3.53V552.36h3.53Zm-.22,5.9c0,3.17,2,4.79,4.28,4.79,2.56,0,4.22-2.19,4.22-4.82s-1.66-4.86-4.22-4.86C725.67,566.22,723.62,567.8,723.62,571.11Z"/><path class="cls-15" d="M754.8,571a8.1,8.1,0,1,1-8.1-8A7.88,7.88,0,0,1,754.8,571Zm-3.6,0c0-3.46-2.27-4.86-4.5-4.86s-4.5,1.4-4.5,4.86c0,2.91,1.72,4.82,4.5,4.82S751.2,574,751.2,571.08Z"/><path class="cls-15" d="M769.56,563.45h3.52V578.6h-3.52V577a5.83,5.83,0,0,1-4.54,2.05c-4.68,0-7.34-3.89-7.34-8.07,0-4.93,3.38-8,7.38-8a5.54,5.54,0,0,1,4.5,2.16Zm-8.28,7.63c0,2.63,1.65,4.82,4.21,4.82,2.23,0,4.28-1.62,4.28-4.79s-2-4.89-4.28-4.89C762.93,566.22,761.28,568.38,761.28,571.08Z"/><path class="cls-15" d="M777.55,563.45h3.53v1.36a6.26,6.26,0,0,1,1.47-1.26,4.15,4.15,0,0,1,2.16-.5,5.17,5.17,0,0,1,2.77.72L786,567a3.22,3.22,0,0,0-1.8-.54,2.74,2.74,0,0,0-2.19.83,4.89,4.89,0,0,0-1,3.49v7.85h-3.53Z"/><path class="cls-15" d="M799.47,552.36H803V578.6h-3.53V577a5.81,5.81,0,0,1-4.53,2.05c-4.68,0-7.35-3.89-7.35-8.07,0-4.93,3.39-8,7.38-8a5.53,5.53,0,0,1,4.5,2.16Zm-8.28,18.72c0,2.63,1.66,4.82,4.21,4.82,2.24,0,4.29-1.62,4.29-4.79s-2.05-4.89-4.29-4.89C792.85,566.22,791.19,568.38,791.19,571.08Z"/><path class="cls-15" d="M808.72,574.1l3.17,1.22-4.46,8.89-2.38-1Z"/><path class="cls-15" d="M835.4,563.45h3.53V578.6H835.4V577a5.83,5.83,0,0,1-4.54,2.05c-4.68,0-7.34-3.89-7.34-8.07,0-4.93,3.38-8,7.38-8a5.54,5.54,0,0,1,4.5,2.16Zm-8.28,7.63c0,2.63,1.66,4.82,4.21,4.82,2.23,0,4.28-1.62,4.28-4.79s-2.05-4.89-4.28-4.89C828.78,566.22,827.12,568.38,827.12,571.08Z"/><path class="cls-15" d="M843.36,563.45h3.52v1.4a5.24,5.24,0,0,1,4.11-1.8,5.07,5.07,0,0,1,4.46,2.05c.58.83.94,1.87.94,4.21v9.29h-3.53v-8.42c0-3.85-1.44-4-2.77-4-1.59,0-3.21.21-3.21,5.11v7.27h-3.52Z"/><path class="cls-15" d="M871.94,552.36h3.53V578.6h-3.53V577a5.83,5.83,0,0,1-4.54,2.05c-4.68,0-7.34-3.89-7.34-8.07,0-4.93,3.38-8,7.38-8a5.54,5.54,0,0,1,4.5,2.16Zm-8.28,18.72c0,2.63,1.65,4.82,4.21,4.82,2.23,0,4.28-1.62,4.28-4.79s-2-4.89-4.28-4.89C865.31,566.22,863.66,568.38,863.66,571.08Z"/><path class="cls-15" d="M891.85,565.21a5.53,5.53,0,0,1,4.5-2.16c4,0,7.37,3,7.37,8,0,4.18-2.66,8.07-7.34,8.07a5.8,5.8,0,0,1-4.53-2.05v1.58h-3.53V552.36h3.53Zm-.22,5.9c0,3.17,2,4.79,4.28,4.79,2.56,0,4.21-2.19,4.21-4.82s-1.65-4.86-4.21-4.86C893.68,566.22,891.63,567.8,891.63,571.11Z"/><path class="cls-15" d="M907.4,563.45h3.53v1.36a6.26,6.26,0,0,1,1.47-1.26,4.15,4.15,0,0,1,2.16-.5,5.17,5.17,0,0,1,2.77.72l-1.44,3.2a3.22,3.22,0,0,0-1.8-.54,2.74,2.74,0,0,0-2.19.83,4.89,4.89,0,0,0-1,3.49v7.85H907.4Z"/><path class="cls-15" d="M921.11,554.92a2.27,2.27,0,1,1-2.26,2.26A2.21,2.21,0,0,1,921.11,554.92Zm1.77,8.53V578.6h-3.53V563.45Z"/><path class="cls-15" d="M927.31,563.45h3.52v1.4a5.23,5.23,0,0,1,4.11-1.8,5.07,5.07,0,0,1,4.46,2.05c.58.83.94,1.87.94,4.21v9.29h-3.53v-8.42c0-3.85-1.44-4-2.77-4-1.59,0-3.21.21-3.21,5.11v7.27h-3.52Z"/><path class="cls-15" d="M955.89,563.45h3.53v13.93c0,3.56-.4,6.12-2.49,7.88a7.69,7.69,0,0,1-5,1.62,6.7,6.7,0,0,1-5-1.87,8.63,8.63,0,0,1-2.23-4.72h3.42a5.11,5.11,0,0,0,1.12,2.38,3.58,3.58,0,0,0,2.73,1,3.78,3.78,0,0,0,2.78-1,5,5,0,0,0,1.15-3.81v-2a5.5,5.5,0,0,1-4.61,2.16,6.43,6.43,0,0,1-5-2.05,8.56,8.56,0,0,1-2.27-6,8,8,0,0,1,2.23-5.86,6.88,6.88,0,0,1,5.15-2.09,5.7,5.7,0,0,1,4.5,2.05Zm-6.73,3.78a5.25,5.25,0,0,0-1.55,3.85,5.18,5.18,0,0,0,1.51,3.81,4.11,4.11,0,0,0,2.7,1,3.82,3.82,0,0,0,2.95-1.22,5.61,5.61,0,0,0-.11-7.38,3.71,3.71,0,0,0-2.84-1.08A3.63,3.63,0,0,0,949.16,567.23Z"/><path class="cls-15" d="M979.58,558.05V578.6H975.9V558.05h-5.5v-3.46h14.68v3.46Z"/><path class="cls-15" d="M995.24,554.59v15.55a12.19,12.19,0,0,1-.9,5.47,6,6,0,0,1-5.66,3.46,7.56,7.56,0,0,1-4.24-1.23l1.8-3.09a3.69,3.69,0,0,0,2.52.86,2.39,2.39,0,0,0,2.41-1.62,10.88,10.88,0,0,0,.39-3.85V554.59Z"/><path class="cls-15" d="M1006,566.07l-6.63-11.48h4.11l4.68,8.14,4.78-8.14h4.11l-6.91,11.48,7.23,12.53h-4.1l-5.26-9.18-5.47,9.18h-4.1Z"/><path class="cls-15" d="M367.62,598.12a2.27,2.27,0,1,1-2.26,2.26A2.21,2.21,0,0,1,367.62,598.12Zm1.77,8.53V621.8h-3.53V606.65Z"/><path class="cls-15" d="M373.82,606.65h3.52v1.4a5.23,5.23,0,0,1,4.11-1.8,5.07,5.07,0,0,1,4.46,2c.58.83.94,1.87.94,4.21v9.29h-3.53v-8.42c0-3.85-1.44-4-2.77-4-1.59,0-3.21.21-3.21,5.11v7.27h-3.52Z"/><path class="cls-15" d="M395,609.89V621.8h-3.53V609.89h-1.48v-3.24h1.48V601.1H395v5.55h2.7v3.24Z"/><path class="cls-15" d="M415.43,614.24a8.1,8.1,0,1,1-8.1-8A7.88,7.88,0,0,1,415.43,614.24Zm-3.6,0c0-3.46-2.27-4.86-4.5-4.86s-4.5,1.4-4.5,4.86c0,2.91,1.73,4.82,4.5,4.82S411.83,617.19,411.83,614.28Z"/><path class="cls-15" d="M438.58,606.65h3.52V621.8h-3.52v-1.58a5.83,5.83,0,0,1-4.54,2c-4.68,0-7.34-3.89-7.34-8.06,0-4.94,3.38-8,7.38-8a5.54,5.54,0,0,1,4.5,2.16Zm-8.28,7.63c0,2.62,1.65,4.82,4.21,4.82,2.23,0,4.28-1.62,4.28-4.79s-2.05-4.89-4.28-4.89C432,609.42,430.3,611.58,430.3,614.28Z"/><path class="cls-15" d="M455,606.65h3.53v1.4a4.66,4.66,0,0,1,3.74-1.8,4.46,4.46,0,0,1,3.92,2.23,5.37,5.37,0,0,1,4.5-2.23,4.83,4.83,0,0,1,4.32,2.38,7.43,7.43,0,0,1,.79,3.81v9.36h-3.52v-8.35a6.83,6.83,0,0,0-.33-2.7,2,2,0,0,0-2-1.33,2.62,2.62,0,0,0-2.09,1.11,6.18,6.18,0,0,0-.69,3.46v7.81H463.6v-8.35a6.83,6.83,0,0,0-.33-2.7,2,2,0,0,0-2-1.33,2.62,2.62,0,0,0-2.09,1.11,6.19,6.19,0,0,0-.68,3.46v7.81H455Z"/><path class="cls-15" d="M495.64,614.24a8.1,8.1,0,1,1-8.1-8A7.88,7.88,0,0,1,495.64,614.24Zm-3.6,0c0-3.46-2.27-4.86-4.5-4.86s-4.5,1.4-4.5,4.86c0,2.91,1.72,4.82,4.5,4.82S492,617.19,492,614.28Z"/><path class="cls-15" d="M499.31,606.65h3.53V608a6.26,6.26,0,0,1,1.47-1.26,4.15,4.15,0,0,1,2.16-.5,5.17,5.17,0,0,1,2.77.72l-1.44,3.2a3.22,3.22,0,0,0-1.8-.54,2.74,2.74,0,0,0-2.19.83,4.9,4.9,0,0,0-1,3.49v7.85h-3.53Z"/><path class="cls-15" d="M523.72,618.34a8,8,0,0,1-2.56,2.78,8.33,8.33,0,0,1-4.46,1.15,6.74,6.74,0,0,1-5.12-1.95,8.16,8.16,0,0,1-2.23-5.79,8.9,8.9,0,0,1,2.41-6.23,6.91,6.91,0,0,1,5.08-2,6.51,6.51,0,0,1,4.86,2c1.94,2,2.12,4.82,2.12,6.41v.43H513a5,5,0,0,0,1.3,3.06,3.59,3.59,0,0,0,2.7,1,3.72,3.72,0,0,0,2.41-.76,5.39,5.39,0,0,0,1.4-1.65Zm-3.5-6.15a3.62,3.62,0,0,0-1.08-2.05,3.36,3.36,0,0,0-2.37-.87,3.4,3.4,0,0,0-2.49,1,3.94,3.94,0,0,0-1.08,1.94Z"/><path class="cls-15" d="M535.88,606.65h3.53v1.4a4.67,4.67,0,0,1,3.75-1.8,4.46,4.46,0,0,1,3.92,2.23,5.37,5.37,0,0,1,4.5-2.23,4.85,4.85,0,0,1,4.32,2.38,7.43,7.43,0,0,1,.79,3.81v9.36h-3.53v-8.35a7.15,7.15,0,0,0-.32-2.7,2,2,0,0,0-2-1.33,2.63,2.63,0,0,0-2.09,1.11,6.19,6.19,0,0,0-.68,3.46v7.81h-3.53v-8.35a7.15,7.15,0,0,0-.32-2.7,2,2,0,0,0-2-1.33,2.6,2.6,0,0,0-2.08,1.11,6.1,6.1,0,0,0-.69,3.46v7.81h-3.53Z"/><path class="cls-15" d="M576.56,614.24a8.1,8.1,0,1,1-8.1-8A7.88,7.88,0,0,1,576.56,614.24Zm-3.6,0c0-3.46-2.26-4.86-4.5-4.86s-4.5,1.4-4.5,4.86c0,2.91,1.73,4.82,4.5,4.82S573,617.19,573,614.28Z"/><path class="cls-15" d="M591.32,595.56h3.53V621.8h-3.53v-1.58a5.81,5.81,0,0,1-4.53,2c-4.68,0-7.35-3.89-7.35-8.06,0-4.94,3.39-8,7.38-8a5.53,5.53,0,0,1,4.5,2.16ZM583,614.28c0,2.62,1.66,4.82,4.22,4.82,2.23,0,4.28-1.62,4.28-4.79s-2-4.89-4.28-4.89C584.7,609.42,583,611.58,583,614.28Z"/><path class="cls-15" d="M612.89,618.34a8,8,0,0,1-2.56,2.78,8.33,8.33,0,0,1-4.46,1.15,6.72,6.72,0,0,1-5.11-1.95,8.12,8.12,0,0,1-2.24-5.79,8.87,8.87,0,0,1,2.42-6.23,6.89,6.89,0,0,1,5.07-2,6.51,6.51,0,0,1,4.86,2c1.94,2,2.12,4.82,2.12,6.41v.43H602.12a5,5,0,0,0,1.3,3.06,3.6,3.6,0,0,0,2.7,1,3.72,3.72,0,0,0,2.41-.76,5.39,5.39,0,0,0,1.4-1.65Zm-3.49-6.15a3.69,3.69,0,0,0-1.09-2.05,3.64,3.64,0,0,0-4.85.11,3.86,3.86,0,0,0-1.08,1.94Z"/><path class="cls-15" d="M616.67,606.65h3.53V608a6.26,6.26,0,0,1,1.47-1.26,4.15,4.15,0,0,1,2.16-.5,5.19,5.19,0,0,1,2.77.72l-1.44,3.2a3.22,3.22,0,0,0-1.8-.54,2.74,2.74,0,0,0-2.19.83,4.9,4.9,0,0,0-1,3.49v7.85h-3.53Z"/><path class="cls-15" d="M628.58,606.65h3.53v1.4a5.22,5.22,0,0,1,4.1-1.8,5.08,5.08,0,0,1,4.47,2c.57.83.93,1.87.93,4.21v9.29h-3.52v-8.42c0-3.85-1.44-4-2.78-4-1.58,0-3.2.21-3.2,5.11v7.27h-3.53Z"/><path class="cls-15" d="M668,618.34a8,8,0,0,1-2.56,2.78,8.33,8.33,0,0,1-4.46,1.15,6.72,6.72,0,0,1-5.11-1.95,8.12,8.12,0,0,1-2.24-5.79,8.87,8.87,0,0,1,2.42-6.23,6.89,6.89,0,0,1,5.07-2,6.51,6.51,0,0,1,4.86,2c1.94,2,2.12,4.82,2.12,6.41v.43H657.27a5,5,0,0,0,1.3,3.06,3.6,3.6,0,0,0,2.7,1,3.72,3.72,0,0,0,2.41-.76,5.39,5.39,0,0,0,1.4-1.65Zm-3.49-6.15a3.68,3.68,0,0,0-1.08-2.05,3.41,3.41,0,0,0-2.38-.87,3.37,3.37,0,0,0-2.48,1,3.86,3.86,0,0,0-1.08,1.94Z"/><path class="cls-15" d="M671.82,606.65h3.53V608a6.26,6.26,0,0,1,1.47-1.26,4.15,4.15,0,0,1,2.16-.5,5.17,5.17,0,0,1,2.77.72l-1.44,3.2a3.22,3.22,0,0,0-1.8-.54,2.74,2.74,0,0,0-2.19.83,4.9,4.9,0,0,0-1,3.49v7.85h-3.53Z"/><path class="cls-15" d="M694.1,606.65h3.53V621.8H694.1v-1.58a5.81,5.81,0,0,1-4.53,2c-4.68,0-7.35-3.89-7.35-8.06,0-4.94,3.39-8,7.38-8a5.53,5.53,0,0,1,4.5,2.16Zm-8.28,7.63c0,2.62,1.66,4.82,4.21,4.82,2.23,0,4.29-1.62,4.29-4.79s-2.06-4.89-4.29-4.89C687.48,609.42,685.82,611.58,685.82,614.28Z"/><path class="cls-15" d="M725.89,614.24a8.1,8.1,0,1,1-8.1-8A7.88,7.88,0,0,1,725.89,614.24Zm-3.6,0c0-3.46-2.27-4.86-4.5-4.86s-4.5,1.4-4.5,4.86c0,2.91,1.73,4.82,4.5,4.82S722.29,617.19,722.29,614.28Z"/><path class="cls-15" d="M733.45,609.89V621.8h-3.53V609.89h-1.51v-3.24h1.51v-5.26a6.69,6.69,0,0,1,1.48-4.75,4.74,4.74,0,0,1,3.6-1.48,5.51,5.51,0,0,1,2.26.44v3.49a3,3,0,0,0-1.69-.54,2.06,2.06,0,0,0-1.55.57,2.51,2.51,0,0,0-.57,1.8v5.73h3.81v3.24Z"/><path class="cls-15" d="M751.2,630h-3.53V606.65h3.53v1.65a5.67,5.67,0,0,1,4.5-2c4,0,7.37,3.06,7.37,7.88,0,5.11-3.74,8.14-7.34,8.14A6,6,0,0,1,751.2,620ZM751,614.31c0,3.17,2,4.79,4.28,4.79,2.56,0,4.22-2.2,4.22-4.82s-1.66-4.86-4.22-4.86C753,609.42,751,611,751,614.31Z"/><path class="cls-15" d="M766.75,606.65h3.53V608a6.26,6.26,0,0,1,1.47-1.26,4.15,4.15,0,0,1,2.16-.5,5.17,5.17,0,0,1,2.77.72l-1.44,3.2a3.22,3.22,0,0,0-1.8-.54,2.74,2.74,0,0,0-2.19.83,4.9,4.9,0,0,0-1,3.49v7.85h-3.53Z"/><path class="cls-15" d="M793.39,614.24a8.1,8.1,0,1,1-8.1-8A7.88,7.88,0,0,1,793.39,614.24Zm-3.6,0c0-3.46-2.27-4.86-4.5-4.86s-4.5,1.4-4.5,4.86c0,2.91,1.73,4.82,4.5,4.82S789.79,617.19,789.79,614.28Z"/><path class="cls-15" d="M808.15,595.56h3.52V621.8h-3.52v-1.58a5.83,5.83,0,0,1-4.54,2c-4.68,0-7.34-3.89-7.34-8.06,0-4.94,3.38-8,7.38-8a5.54,5.54,0,0,1,4.5,2.16Zm-8.28,18.72c0,2.62,1.65,4.82,4.21,4.82,2.23,0,4.28-1.62,4.28-4.79s-2.05-4.89-4.28-4.89C801.52,609.42,799.87,611.58,799.87,614.28Z"/><path class="cls-15" d="M819.67,606.65v8.67a4.34,4.34,0,0,0,.65,2.74,3.06,3.06,0,0,0,4.6,0,4.34,4.34,0,0,0,.65-2.74v-8.67h3.53v8.78c0,1.94-.22,3.56-1.62,5a7,7,0,0,1-4.93,1.87,6.68,6.68,0,0,1-4.79-1.87c-1.4-1.41-1.62-3-1.62-5v-8.78Z"/><path class="cls-15" d="M845.3,611.29a6,6,0,0,0-4.28-1.87,4.53,4.53,0,0,0-3.35,1.33,4.84,4.84,0,0,0-1.3,3.49,5.07,5.07,0,0,0,1.37,3.64,4.6,4.6,0,0,0,3.2,1.22,5.91,5.91,0,0,0,4.36-1.94v3.92a8.32,8.32,0,0,1-4.61,1.19,7.39,7.39,0,0,1-5.76-2.23,7.89,7.89,0,0,1-2.16-5.69,8.1,8.1,0,0,1,2.31-5.87,9,9,0,0,1,10.22-1.15Z"/><path class="cls-15" d="M852.32,609.89V621.8h-3.53V609.89h-1.47v-3.24h1.47V601.1h3.53v5.55H855v3.24Z"/><path class="cls-15" d="M859.16,598.12a2.27,2.27,0,1,1-2.27,2.26A2.21,2.21,0,0,1,859.16,598.12Zm1.76,8.53V621.8H857.4V606.65Z"/><path class="cls-15" d="M867.33,606.65l3.89,8.64,3.89-8.64h4l-7.85,16.23-7.85-16.23Z"/><path class="cls-15" d="M883.28,598.12a2.27,2.27,0,1,1-2.27,2.26A2.22,2.22,0,0,1,883.28,598.12Zm1.76,8.53V621.8h-3.53V606.65Z"/><path class="cls-15" d="M893.14,609.89V621.8h-3.53V609.89h-1.47v-3.24h1.47V601.1h3.53v5.55h2.7v3.24Z"/><path class="cls-15" d="M903.4,619.42l-6.48-12.77h4.25l4.32,8.85,4.39-8.85h4L901.78,630h-4Z"/><path class="cls-15" d="M916.51,617.91a2.16,2.16,0,1,1-2.16,2.16A2.17,2.17,0,0,1,916.51,617.91Z"/></g></svg>